<svg class="animated" id="freepik_stories-503-error-service-unavailable" xmlns="http://www.w3.org/2000/svg" viewBox="0 0 500 500" version="1.1" xmlns:xlink="http://www.w3.org/1999/xlink" xmlns:svgjs="http://svgjs.com/svgjs"><style>svg#freepik_stories-503-error-service-unavailable:not(.animated) .animable {opacity: 0;}svg#freepik_stories-503-error-service-unavailable.animated #elrzu4m5iv63d {animation: 3.0s 1 forwards cubic-bezier(.36,-0.01,.5,1.38) fadeIn;animation-delay: 0s;}svg#freepik_stories-503-error-service-unavailable.animated #eliuwy36cai2f {animation: 3.0s 1 forwards cubic-bezier(.36,-0.01,.5,1.38) fadeIn;animation-delay: 0.1s;opacity: 0}svg#freepik_stories-503-error-service-unavailable.animated #elxoh2ueocxl {animation: 3.0s 1 forwards cubic-bezier(.36,-0.01,.5,1.38) fadeIn;animation-delay: 0.2s;opacity: 0}svg#freepik_stories-503-error-service-unavailable.animated #elsgpqs73orn {animation: 3.0s 1 forwards cubic-bezier(.36,-0.01,.5,1.38) fadeIn;animation-delay: 0.30000000000000004s;opacity: 0}svg#freepik_stories-503-error-service-unavailable.animated #elflf8b1gl4v {animation: 3.0s 1 forwards cubic-bezier(.36,-0.01,.5,1.38) fadeIn;animation-delay: 0.4s;opacity: 0}svg#freepik_stories-503-error-service-unavailable.animated #el26k3rj4a68k {animation: 3.0s 1 forwards cubic-bezier(.36,-0.01,.5,1.38) fadeIn;animation-delay: 0.5s;opacity: 0}svg#freepik_stories-503-error-service-unavailable.animated #elf9usjsyjlli {animation: 3.0s 1 forwards cubic-bezier(.36,-0.01,.5,1.38) fadeIn;animation-delay: 0.6000000000000001s;opacity: 0}svg#freepik_stories-503-error-service-unavailable.animated #el2tgae03tnvf {animation: 3.0s 1 forwards cubic-bezier(.36,-0.01,.5,1.38) fadeIn;animation-delay: 0.7000000000000001s;opacity: 0}svg#freepik_stories-503-error-service-unavailable.animated #el6keb7sbtf44 {animation: 3.0s 1 forwards cubic-bezier(.36,-0.01,.5,1.38) fadeIn;animation-delay: 0.8s;opacity: 0}svg#freepik_stories-503-error-service-unavailable.animated #el2owh9zanczc {animation: 3.0s 1 forwards cubic-bezier(.36,-0.01,.5,1.38) fadeIn;animation-delay: 0.9s;opacity: 0}svg#freepik_stories-503-error-service-unavailable.animated #elvbvxfwry6fm {animation: 3.0s 1 forwards cubic-bezier(.36,-0.01,.5,1.38) fadeIn;animation-delay: 1s;opacity: 0}svg#freepik_stories-503-error-service-unavailable.animated #elfbptzjabp2l {animation: 3.0s 1 forwards cubic-bezier(.36,-0.01,.5,1.38) fadeIn;animation-delay: 1.1s;opacity: 0}svg#freepik_stories-503-error-service-unavailable.animated #elcx441x9p5oe {animation: 3.0s 1 forwards cubic-bezier(.36,-0.01,.5,1.38) fadeIn;animation-delay: 1.2000000000000002s;opacity: 0}svg#freepik_stories-503-error-service-unavailable.animated #eloi7y34oe0z {animation: 3.0s 1 forwards cubic-bezier(.36,-0.01,.5,1.38) fadeIn;animation-delay: 1.3s;opacity: 0}svg#freepik_stories-503-error-service-unavailable.animated #elyvc4d2p34w {animation: 3.0s 1 forwards cubic-bezier(.36,-0.01,.5,1.38) fadeIn;animation-delay: 1.4000000000000001s;opacity: 0}svg#freepik_stories-503-error-service-unavailable.animated #el1289jz60xrjk {animation: 3.0s 1 forwards cubic-bezier(.36,-0.01,.5,1.38) fadeIn;animation-delay: 1.5s;opacity: 0}svg#freepik_stories-503-error-service-unavailable.animated #elj92o6hwvyil {animation: 3.0s 1 forwards cubic-bezier(.36,-0.01,.5,1.38) fadeIn;animation-delay: 1.6s;opacity: 0}svg#freepik_stories-503-error-service-unavailable.animated #elarbv4gamc5j {animation: 3.0s 1 forwards cubic-bezier(.36,-0.01,.5,1.38) fadeIn;animation-delay: 1.7000000000000002s;opacity: 0}svg#freepik_stories-503-error-service-unavailable.animated #elk5extgo68ue {animation: 3.0s 1 forwards cubic-bezier(.36,-0.01,.5,1.38) fadeIn;animation-delay: 1.8s;opacity: 0}svg#freepik_stories-503-error-service-unavailable.animated #elt04a11onxab {animation: 3.0s 1 forwards cubic-bezier(.36,-0.01,.5,1.38) fadeIn;animation-delay: 1.9000000000000001s;opacity: 0}svg#freepik_stories-503-error-service-unavailable.animated #el53drxnhmun3 {animation: 3.0s 1 forwards cubic-bezier(.36,-0.01,.5,1.38) fadeIn;animation-delay: 2s;opacity: 0}svg#freepik_stories-503-error-service-unavailable.animated #el3getn8uxbqc {animation: 3.0s 1 forwards cubic-bezier(.36,-0.01,.5,1.38) fadeIn;animation-delay: 2.1s;opacity: 0}svg#freepik_stories-503-error-service-unavailable.animated #elor0pxt56hq {animation: 3.0s 1 forwards cubic-bezier(.36,-0.01,.5,1.38) fadeIn;animation-delay: 2.2s;opacity: 0}svg#freepik_stories-503-error-service-unavailable.animated #el2eh3002fzu4 {animation: 3.0s 1 forwards cubic-bezier(.36,-0.01,.5,1.38) fadeIn;animation-delay: 2.3000000000000003s;opacity: 0}svg#freepik_stories-503-error-service-unavailable.animated #el4p8g9tvpit {animation: 3.0s 1 forwards cubic-bezier(.36,-0.01,.5,1.38) fadeIn;animation-delay: 2.4000000000000004s;opacity: 0}svg#freepik_stories-503-error-service-unavailable.animated #el1cz8n05wg9s {animation: 3.0s 1 forwards cubic-bezier(.36,-0.01,.5,1.38) fadeIn;animation-delay: 2.5s;opacity: 0}svg#freepik_stories-503-error-service-unavailable.animated #el83p0e449m9j {animation: 3.0s 1 forwards cubic-bezier(.36,-0.01,.5,1.38) fadeIn;animation-delay: 2.6s;opacity: 0}svg#freepik_stories-503-error-service-unavailable.animated #elbsf09d9l6gk {animation: 3.0s 1 forwards cubic-bezier(.36,-0.01,.5,1.38) fadeIn;animation-delay: 2.7s;opacity: 0}svg#freepik_stories-503-error-service-unavailable.animated #elvp3sxhxq61e {animation: 3.0s 1 forwards cubic-bezier(.36,-0.01,.5,1.38) fadeIn;animation-delay: 2.8000000000000003s;opacity: 0}svg#freepik_stories-503-error-service-unavailable.animated #ela8133ypc13 {animation: 3.0s 1 forwards cubic-bezier(.36,-0.01,.5,1.38) fadeIn;animation-delay: 2.9000000000000004s;opacity: 0}svg#freepik_stories-503-error-service-unavailable.animated #freepik--background-complete--inject-22 {animation: 3.0s 1 forwards cubic-bezier(.36,-0.01,.5,1.38) fadeIn;animation-delay: 0s;}svg#freepik_stories-503-error-service-unavailable.animated #freepik--Plant--inject-22 {animation: 3.0s 1 forwards cubic-bezier(.36,-0.01,.5,1.38) fadeIn;animation-delay: 0s;}svg#freepik_stories-503-error-service-unavailable.animated #freepik--Texts--inject-22 {animation: 2s 1 forwards cubic-bezier(.36,-0.01,.5,1.38) slideDown,1.5s Infinite  linear floating;animation-delay: 0s,2s;}svg#freepik_stories-503-error-service-unavailable.animated #freepik--Cat--inject-22 {animation: 2.0s 1 forwards linear slideDown,1.5s Infinite  linear floating;animation-delay: 0s,2s;}            @keyframes fadeIn {                0% {                    opacity: 0;                }                100% {                    opacity: 1;                }            }                    @keyframes slideDown {                0% {                    opacity: 0;                    transform: translateY(-30px);                }                100% {                    opacity: 1;                    transform: translateY(0);                }            }                    @keyframes floating {                0% {                    opacity: 1;                    transform: translateY(0px);                }                50% {                    transform: translateY(-10px);                }                100% {                    opacity: 1;                    transform: translateY(0px);                }            }        .animator-hidden { display: none; }</style><g id="freepik--background-complete--inject-22" class="animable" style="transform-origin: 248.095px 215.91px;"><path d="M92.64,317.14l-14.84.28-7.51.12c-2.51,0-5,0-7.55,0H62.3v-.45l0-12.63V304h.5l14.95.07c5,0,10,.11,15,.16h.27v.27c0,2.14-.09,4.27-.13,6.38Zm0,0-.15-6.37c0-2.1-.11-4.19-.13-6.26l.28.27c-5,.06-10,.16-15,.17L62.74,305l.5-.5-.05,12.63-.45-.44c2.47,0,4.93,0,7.4.05l7.43.12Z" style="fill: rgb(235, 235, 235); transform-origin: 77.66px 310.77px;" id="elrzu4m5iv63d" class="animable"></path><path d="M76,333.07l-14.83.28-7.52.12c-2.51,0-5,0-7.55,0h-.44v-.45l-.06-12.63v-.5h.5L61,320c5,0,10,.12,14.95.17h.27v.27c0,2.14-.08,4.27-.13,6.38Zm0,0-.14-6.37c0-2.1-.11-4.19-.13-6.26l.27.27c-5,.06-10,.16-14.95.17l-14.95.06.5-.5-.05,12.63-.45-.44c2.47,0,4.93,0,7.4.05l7.44.12Z" style="fill: rgb(235, 235, 235); transform-origin: 60.91px 326.68px;" id="eliuwy36cai2f" class="animable"></path><path d="M76,59.71,61.13,60l-7.52.11c-2.51,0-5,0-7.55.06h-.44v-.45l-.06-12.63v-.5h.5L61,46.64c5,0,10,.12,14.95.17h.27v.27c0,2.14-.08,4.27-.13,6.38Zm0,0-.14-6.37c0-2.1-.11-4.19-.13-6.26l.27.27c-5,0-10,.16-14.95.17l-14.95.06.5-.5-.05,12.63-.45-.44c2.47,0,4.93,0,7.4,0l7.44.12Z" style="fill: rgb(235, 235, 235); transform-origin: 60.89px 53.38px;" id="elxoh2ueocxl" class="animable"></path><path d="M453.94,59.71,439.1,60l-7.51.11c-2.51,0-5,0-7.55.06h-.44v-.45l0-12.63v-.5h.5l14.95.06c5,0,10,.12,14.95.17h.27v.27c0,2.14-.09,4.27-.13,6.38Zm0,0-.15-6.37c0-2.1-.11-4.19-.13-6.26l.28.27c-5,0-10,.16-14.95.17L424,47.58l.5-.5-.05,12.63-.45-.44c2.47,0,4.93,0,7.4,0l7.43.12Z" style="fill: rgb(235, 235, 235); transform-origin: 438.935px 53.38px;" id="elsgpqs73orn" class="animable"></path><path d="M437.26,75.64l-14.83.28-7.52.11c-2.51,0-5,0-7.55.06h-.44v-.45L406.86,63v-.5h.5l14.95.06c5,0,10,.12,14.95.17h.28V63c0,2.14-.08,4.27-.13,6.38Zm0,0-.14-6.37c-.05-2.11-.11-4.19-.13-6.26l.27.27c-5,0-10,.16-14.95.17l-14.95.06.5-.5-.05,12.63-.45-.44c2.47,0,4.93,0,7.4,0l7.44.12Z" style="fill: rgb(235, 235, 235); transform-origin: 422.2px 69.295px;" id="elflf8b1gl4v" class="animable"></path><path d="M356.14,193.69l-14.83.28-7.52.11c-2.51,0-5,0-7.54.06h-.45v-.45l-.05-12.63v-.5h.51l14.94.06c5,0,10,.12,14.95.17h.28v.27c0,2.14-.09,4.27-.14,6.37Zm0,0-.14-6.37c0-2.11-.11-4.19-.13-6.26l.27.27c-5,0-10,.16-14.95.17l-14.94.06.5-.5-.06,12.63-.44-.44c2.46,0,4.92,0,7.4.05l7.43.11Z" style="fill: rgb(235, 235, 235); transform-origin: 341.09px 187.35px;" id="el26k3rj4a68k" class="animable"></path><path d="M339.47,209.62l-14.84.28-7.51.11c-2.51.05-5,0-7.55.06h-.44v-.45L309.07,197v-.5h.5l14.95.06c5,0,10,.12,15,.17h.27V197c0,2.14-.09,4.27-.13,6.37Zm0,0-.15-6.37c0-2.11-.11-4.19-.13-6.26l.28.27c-5,.05-10,.16-15,.17l-14.95.06.5-.5L310,209.62l-.44-.44c2.47,0,4.93,0,7.4,0l7.43.11Z" style="fill: rgb(235, 235, 235); transform-origin: 324.43px 203.285px;" id="elf9usjsyjlli" class="animable"></path><path d="M322.85,193.69,308,194l-7.51.11c-2.51,0-5,0-7.55.06h-.45v-.45l-.05-12.63v-.5h.5l15,.06c5,0,10,.12,14.94.17h.28v.27c0,2.14-.09,4.27-.13,6.37Zm0,0-.14-6.37c0-2.11-.11-4.19-.13-6.26l.27.27c-5,0-10,.16-14.94.17l-15,.06.5-.5-.06,12.63-.44-.44c2.46,0,4.92,0,7.4.05l7.43.11Z" style="fill: rgb(235, 235, 235); transform-origin: 307.8px 187.38px;" id="el2tgae03tnvf" class="animable"></path><path d="M453.94,333.07l-14.84.28-7.51.12c-2.51,0-5,0-7.55,0h-.44v-.45l0-12.63v-.5h.5L439,320c5,0,10,.12,14.95.17h.27v.27c0,2.14-.09,4.27-.13,6.38Zm0,0-.15-6.37c0-2.1-.11-4.19-.13-6.26l.28.27c-5,.06-10,.16-14.95.17l-14.95.06.5-.5-.05,12.63-.45-.44c2.47,0,4.93,0,7.4.05l7.43.12Z" style="fill: rgb(235, 235, 235); transform-origin: 438.91px 326.68px;" id="el6keb7sbtf44" class="animable"></path><path d="M184.41,148.22l-14.83.28-7.52.11c-2.51,0-5,0-7.54,0h-.45v-.45l0-12.63v-.51h.51l14.94.06c5,0,10,.11,14.95.16h.28v.27c0,2.13-.08,4.26-.13,6.37Zm0,0-.14-6.38c-.05-2.1-.11-4.18-.13-6.25l.27.27c-5,0-10,.16-14.95.16l-14.94.06.49-.49,0,12.63-.44-.45c2.46,0,4.92,0,7.39.06l7.44.11Z" style="fill: rgb(235, 235, 235); transform-origin: 169.41px 141.815px;" id="el2owh9zanczc" class="animable"></path><polygon points="46.5 355.61 188.88 355.61 193.45 265.27 41.92 265.27 46.5 355.61" style="fill: rgb(235, 235, 235); transform-origin: 117.685px 310.44px;" id="elvbvxfwry6fm" class="animable"></polygon><path d="M178.39,306.57H53.1l-1.72-31.25h129Zm-124.34-1h123.4l1.88-29.25H52.44Z" style="fill: rgb(219, 219, 219); transform-origin: 115.88px 290.945px;" id="elfbptzjabp2l" class="animable"></path><path d="M176.69,342.65h-120l-1.4-28.2H178.45Zm-119-1H175.75l1.64-26.2h-121Z" style="fill: rgb(219, 219, 219); transform-origin: 116.87px 328.55px;" id="elcx441x9p5oe" class="animable"></path><path d="M130.12,294.29H103.63l-1-7.45h28.41Zm-25.61-1h24.73l.7-5.45H103.81Z" style="fill: rgb(219, 219, 219); transform-origin: 116.835px 290.565px;" id="eloi7y34oe0z" class="animable"></path><path d="M130.12,332.28H103.63l-1-7.45h28.41Zm-25.61-1h24.73l.7-5.45H103.81Z" style="fill: rgb(219, 219, 219); transform-origin: 116.835px 328.555px;" id="elyvc4d2p34w" class="animable"></path><polygon points="66.24 355.61 64.86 365.45 62.08 385.23 56.64 385.23 56.64 355.61 66.24 355.61" style="fill: rgb(235, 235, 235); transform-origin: 61.44px 370.42px;" id="el1289jz60xrjk" class="animable"></polygon><polygon points="66.24 355.61 64.86 365.45 56.64 365.45 56.64 355.61 66.24 355.61" style="fill: rgb(219, 219, 219); transform-origin: 61.44px 360.53px;" id="elj92o6hwvyil" class="animable"></polygon><polygon points="169.13 355.61 170.51 365.45 173.29 385.23 178.73 385.23 178.73 355.61 169.13 355.61" style="fill: rgb(235, 235, 235); transform-origin: 173.93px 370.42px;" id="elarbv4gamc5j" class="animable"></polygon><polygon points="169.13 355.61 170.51 365.45 178.73 365.45 178.73 355.61 169.13 355.61" style="fill: rgb(219, 219, 219); transform-origin: 173.93px 360.53px;" id="elk5extgo68ue" class="animable"></polygon><g id="elt04a11onxab"><rect x="379.04" y="168.5" width="81.97" height="59.18" style="fill: rgb(235, 235, 235); transform-origin: 420.025px 198.09px; transform: rotate(90deg);" class="animable"></rect></g><g id="el53drxnhmun3"><rect x="386.77" y="176.23" width="66.5" height="43.7" style="fill: rgb(255, 255, 255); transform-origin: 420.02px 198.08px; transform: rotate(90deg);" class="animable"></rect></g><rect x="398.17" y="164.84" width="43.7" height="66.5" style="fill: rgb(255, 255, 255); transform-origin: 420.02px 198.09px;" id="el3getn8uxbqc" class="animable"></rect><g id="elor0pxt56hq"><g style="opacity: 0.2; transform-origin: 420.025px 198.09px;" class="animable"><polygon points="436.27 231.34 422.54 231.34 398.17 206.97 398.17 193.24 436.27 231.34" style="fill: rgb(235, 235, 235); transform-origin: 417.22px 212.29px;" id="elf4y7wovdbad" class="animable"></polygon><polygon points="441.88 195.92 410.79 164.84 415.32 164.84 441.88 191.4 441.88 195.92" style="fill: rgb(235, 235, 235); transform-origin: 426.335px 180.38px;" id="elic5bjx94o3" class="animable"></polygon><polygon points="441.88 176.86 429.86 164.84 431.36 164.84 441.88 175.35 441.88 176.86" style="fill: rgb(235, 235, 235); transform-origin: 435.87px 170.85px;" id="elzooegrj235" class="animable"></polygon><polygon points="413.71 231.34 412.2 231.34 398.17 217.31 398.17 215.8 413.71 231.34" style="fill: rgb(235, 235, 235); transform-origin: 405.94px 223.57px;" id="elmp4qljr95yi" class="animable"></polygon><polygon points="441.88 205.39 401.32 164.84 402.83 164.84 441.88 203.89 441.88 205.39" style="fill: rgb(235, 235, 235); transform-origin: 421.6px 185.115px;" id="elavpkzl7nshq" class="animable"></polygon></g></g><rect x="398.17" y="164.84" width="3.15" height="66.5" style="fill: rgb(219, 219, 219); transform-origin: 399.745px 198.09px;" id="el2eh3002fzu4" class="animable"></rect><rect x="449.61" y="157.1" width="3.15" height="81.97" style="fill: rgb(219, 219, 219); transform-origin: 451.185px 198.085px;" id="el4p8g9tvpit" class="animable"></rect><g id="el1cz8n05wg9s"><rect x="343.14" y="59.79" width="81.97" height="59.18" style="fill: rgb(235, 235, 235); transform-origin: 384.125px 89.38px; transform: rotate(90deg);" class="animable"></rect></g><g id="el83p0e449m9j"><rect x="350.88" y="67.53" width="66.5" height="43.7" style="fill: rgb(255, 255, 255); transform-origin: 384.13px 89.38px; transform: rotate(90deg);" class="animable"></rect></g><g id="elbsf09d9l6gk"><g style="opacity: 0.2; transform-origin: 384.13px 89.38px;" class="animable"><polygon points="405.98 104.17 362.28 60.47 362.28 56.13 371.67 56.13 405.98 90.44 405.98 104.17" style="fill: rgb(235, 235, 235); transform-origin: 384.13px 80.15px;" id="elr25g9zzgoe" class="animable"></polygon><polygon points="385.73 122.63 371.99 122.63 362.28 112.92 362.28 99.18 385.73 122.63" style="fill: rgb(235, 235, 235); transform-origin: 374.005px 110.905px;" id="elzw1sidrbb8" class="animable"></polygon><polygon points="405.98 64.7 397.41 56.13 401.92 56.13 405.98 60.19 405.98 64.7" style="fill: rgb(235, 235, 235); transform-origin: 401.695px 60.415px;" id="eltpocylr5m1s" class="animable"></polygon><polygon points="401.26 122.63 399.75 122.63 362.28 85.16 362.28 83.65 401.26 122.63" style="fill: rgb(235, 235, 235); transform-origin: 381.77px 103.14px;" id="elb4ggu5md1ov" class="animable"></polygon><polygon points="405.98 85.88 376.23 56.13 377.74 56.13 405.98 84.37 405.98 85.88" style="fill: rgb(235, 235, 235); transform-origin: 391.105px 71.005px;" id="el34isl1xklfs" class="animable"></polygon></g></g><rect x="362.28" y="56.13" width="3.15" height="66.5" style="fill: rgb(219, 219, 219); transform-origin: 363.855px 89.38px;" id="elvp3sxhxq61e" class="animable"></rect><rect x="413.72" y="48.39" width="3.15" height="81.97" style="fill: rgb(219, 219, 219); transform-origin: 415.295px 89.375px;" id="ela8133ypc13" class="animable"></rect></g><g id="freepik--Floor--inject-22" class="animable" style="transform-origin: 250px 385.215px;"><polygon points="43.37 385.21 95.03 384.97 146.69 384.88 250 384.72 353.31 384.88 404.97 384.97 456.63 385.21 404.97 385.46 353.31 385.55 250 385.71 146.69 385.55 95.03 385.46 43.37 385.21" style="fill: rgb(38, 50, 56); transform-origin: 250px 385.215px;" id="elb4ddtcbhb3o" class="animable"></polygon></g><g id="freepik--Plant--inject-22" class="animable animator-active" style="transform-origin: 417.38px 326.78px;"><path d="M446.52,299c-11.77,15.95-24,34.46-27,54.46,0,.3.45.4.52.1a119.24,119.24,0,0,1,5.21-16c7.74-2.13,15.34-3.88,19.4-11.57,4.15-7.9,3.62-18.19,2.83-26.8C447.39,298.69,446.76,298.67,446.52,299Z" style="fill: rgb(255, 199, 39); transform-origin: 433.773px 326.26px;" id="elhp5q8z3jzru" class="animable"></path><path d="M425.32,337.37c5.29-11.87,12.08-23.79,20.71-33.55.06-.07.15,0,.1.09-5.65,6.95-9.95,14.52-14.14,22.23,3.9-4,8.17-7.51,11.87-11.7.07-.08.18,0,.11.12-3.66,4.4-7.67,9.18-12.45,12.43q-1.92,3.56-3.88,7.11c.32-.18.65-.34,1-.5.06,0,.11.06.05.08-.36.19-.72.38-1.1.54-.62,1.12-1.23,2.25-1.87,3.37C425.56,337.84,425.21,337.62,425.32,337.37Z" style="fill: rgb(38, 50, 56); transform-origin: 435.722px 320.746px;" id="elmky9ffxa8vk" class="animable"></path><path d="M429.26,333.23a70.09,70.09,0,0,0,9-6c.07-.06.19.05.11.11a48.06,48.06,0,0,1-9,6.15C429.24,333.52,429.11,333.31,429.26,333.23Z" style="fill: rgb(38, 50, 56); transform-origin: 433.795px 330.353px;" id="eltlj0boi408i" class="animable"></path><path d="M418.12,350.46a.22.22,0,0,0,.43,0c.06-6.59,0-13.21.1-19.82,1.69-3.41,5.31-5.29,7.83-8a35,35,0,0,0,4.7-6.54,47.07,47.07,0,0,0,5.45-18.17c.69-7-2-30.29-4.95-29.48-1.54.42-6.53,11.93-7.85,15.74a110.17,110.17,0,0,0-4.68,19.3C416.74,319,416.94,334.86,418.12,350.46Z" style="fill: rgb(255, 199, 39); transform-origin: 427.005px 309.531px;" id="el3p8xurpw53d" class="animable"></path><path d="M418.07,322l0,0c.36-8.33,2.24-16.75,4-24.83,1.89-8.71,4.1-16.91,8.58-24.67a.13.13,0,1,1,.22.13A92.17,92.17,0,0,0,424,291.58c.3-.46.66-.91,1-1.35.13-.18.41,0,.29.17a11.91,11.91,0,0,1-1.4,2l-.05,0c-1.55,6.22-2.65,12.59-3.6,18.94l.21-.25c.05,0,.13,0,.1.08s-.25.42-.38.63c-.48,3.22-.92,6.44-1.37,9.63,5.74-4.91,10.64-10.69,13.41-17.81a0,0,0,1,1,.05,0c-2.71,7.39-7,14-13.55,18.44l-.36,2.57c0,.18-.31.13-.31,0,0-.76,0-1.52.07-2.28A.18.18,0,0,1,418.07,322Z" style="fill: rgb(38, 50, 56); transform-origin: 425.103px 298.581px;" id="elotm6x2spbk9" class="animable"></path><path d="M420.77,310c4.39-6.54,8.49-12.9,11.7-20.14,0-.08.17,0,.14.07-2.71,7.18-6.49,14.47-11.62,20.24C420.89,310.26,420.69,310.1,420.77,310Z" style="fill: rgb(38, 50, 56); transform-origin: 426.683px 300.012px;" id="elbxf2owv1btg" class="animable"></path><path d="M426.6,288.22c1.82-3.22,3.73-6.34,5.44-9.62,0-.09.18,0,.14.08a50.13,50.13,0,0,1-5.3,9.7A.16.16,0,0,1,426.6,288.22Z" style="fill: rgb(38, 50, 56); transform-origin: 429.382px 283.512px;" id="ellpd1u6cssro" class="animable"></path><path d="M425.89,289.62s0,.05,0,.05A0,0,0,0,1,425.89,289.62Z" style="fill: rgb(38, 50, 56); transform-origin: 425.89px 289.645px;" id="el47u8ii1btzi" class="animable"></path><path d="M413.66,331.41a66.42,66.42,0,0,1-1.54,13l.21,1.42a62.25,62.25,0,0,0,2.32-14.46.47.47,0,0,0,0-.45h0a96.29,96.29,0,0,0-1.46-19.6c-2-12.1-6.49-23.71-14.93-32.79a.61.61,0,0,0-.94.2c-3.4,8.66-2.21,19,.69,27.63a50.53,50.53,0,0,0,6.69,13.13C407.62,323.52,411.31,327,413.66,331.41Z" style="fill: rgb(255, 199, 39); transform-origin: 404.979px 312.109px;" id="elge2jigrbjto" class="animable"></path><path d="M399.27,282.55c8,13,13.57,28.37,14.25,43.71,0,.27-.44.34-.48.07-.19-1.38-.4-2.75-.62-4.11h0c-3.31-3.17-6.7-6.52-9.07-10.48a.07.07,0,0,1,.11-.09,109.88,109.88,0,0,0,8.82,9.6c-.58-3.39-1.25-6.73-2.06-10l-.63-.74c-.14-.16.09-.4.24-.24s.12.15.19.22a117.57,117.57,0,0,0-4.18-13.28c-2-2.43-4.32-4.53-5.8-7.46,0-.07.06-.12.11-.06,1.19,1.67,2.34,3.36,3.69,4.91.54.62,1.14,1.2,1.69,1.8A103.21,103.21,0,0,0,399,282.73.17.17,0,1,1,399.27,282.55Z" style="fill: rgb(38, 50, 56); transform-origin: 406.228px 304.464px;" id="elx0aenpvvmta" class="animable"></path><path d="M400.89,298.56c2.59,3.48,5.53,6.8,7.94,10.4.07.1-.08.21-.17.13-3.09-2.9-5.7-6.86-7.94-10.43C400.65,298.55,400.82,298.46,400.89,298.56Z" style="fill: rgb(38, 50, 56); transform-origin: 404.776px 303.817px;" id="elqjb8174sa3" class="animable"></path><path d="M409.19,309.77l.11.11c.08.07,0,.19-.12.11l-.11-.11C409,309.81,409.11,309.69,409.19,309.77Z" style="fill: rgb(38, 50, 56); transform-origin: 409.19px 309.88px;" id="elyg2byqypgmb" class="animable"></path><path d="M386.74,307.51a39.85,39.85,0,0,0,8.44,19.8,20.87,20.87,0,0,0,6.85,5.34c3,1.47,6.07,3.16,9.13,4.36a60.12,60.12,0,0,1,3.24,11.49c.1-.33.2-.68.29-1-2-16.92-12.91-31.37-26.91-40.65A.68.68,0,0,0,386.74,307.51Z" style="fill: rgb(255, 199, 39); transform-origin: 400.712px 327.622px;" id="elsgjfp85jjml" class="animable"></path><path d="M391.58,312.5c-.1-.08,0-.26.14-.18a57.3,57.3,0,0,1,17.84,22c.1.23-.22.43-.35.2-.65-1.14-1.32-2.25-2-3.34h0c-3.2-.61-6.22-2.85-8.59-5-.07-.06,0-.15.09-.09a19.88,19.88,0,0,0,4,2.84c1.31.66,2.71,1.07,4.07,1.6-1.19-1.88-2.42-3.68-3.71-5.43a37.31,37.31,0,0,1-9.6-5.39c-.09-.07,0-.22.09-.16a92.26,92.26,0,0,0,8.92,4.77,80.62,80.62,0,0,0-6.3-7.34c-1.09-.58-2.19-1.15-3.24-1.77a.09.09,0,0,1,.07-.16,11.64,11.64,0,0,1,2.48,1.22C394.27,315,393,313.73,391.58,312.5Z" style="fill: rgb(38, 50, 56); transform-origin: 400.559px 323.461px;" id="el7tf1d2uwn0r" class="animable"></path><path d="M391.87,318.34a3.54,3.54,0,0,1,.54.39s0,.11-.06.08a3.15,3.15,0,0,1-.57-.31C391.69,318.43,391.78,318.28,391.87,318.34Z" style="fill: rgb(38, 50, 56); transform-origin: 392.076px 318.571px;" id="elr04d84j80xr" class="animable"></path><polygon points="436.54 385.13 398.18 385.13 401.28 350.2 401.96 342.49 432.76 342.49 433.44 350.2 436.54 385.13" style="fill: rgb(69, 90, 100); transform-origin: 417.36px 363.81px;" id="elg48f8xzfgr7" class="animable"></polygon><polygon points="433.44 350.2 401.28 350.2 401.96 342.49 432.76 342.49 433.44 350.2" style="fill: rgb(38, 50, 56); transform-origin: 417.36px 346.345px;" id="elaw1po0gd3xj" class="animable"></polygon><rect x="400.12" y="337.11" width="34.47" height="7.62" style="fill: rgb(69, 90, 100); transform-origin: 417.355px 340.92px;" id="elcraznpqyvun" class="animable"></rect></g><g id="freepik--Shadow--inject-22" class="animable" style="transform-origin: 250px 410.85px;"><ellipse cx="250" cy="410.85" rx="77.9" ry="12.94" style="fill: rgb(235, 235, 235); transform-origin: 250px 410.85px;" id="el2fmk3agct2" class="animable"></ellipse></g><g id="freepik--Texts--inject-22" class="animable" style="transform-origin: 249.988px 250.055px;"><path d="M216.73,72.45v3.63H201.94V54.78h14.52v3.63H206.08v5.13h9V66.9h-9v5.55Z" style="fill: rgb(55, 71, 79); transform-origin: 209.335px 65.43px;" id="ely9lvccqjdbd" class="animable"></path><path d="M220,76.08V54.78h9.42a6.1,6.1,0,0,1,2.72.62A7.12,7.12,0,0,1,234.25,57a7.64,7.64,0,0,1,1.41,2.28,6.83,6.83,0,0,1,.51,2.56,7,7,0,0,1-1,3.77,5.87,5.87,0,0,1-2.8,2.44l4.86,8h-4.65l-4.35-7.14h-4.08v7.14Zm4.14-10.77h5.19a2.21,2.21,0,0,0,1.07-.27,2.69,2.69,0,0,0,.85-.73,3.69,3.69,0,0,0,.57-1.1,4.24,4.24,0,0,0,.21-1.35,3.85,3.85,0,0,0-.24-1.38,3.78,3.78,0,0,0-.64-1.09,3,3,0,0,0-.94-.72,2.37,2.37,0,0,0-1.06-.26h-5Z" style="fill: rgb(55, 71, 79); transform-origin: 228.615px 65.4299px;" id="elqx939949xha" class="animable"></path><path d="M239.92,76.08V54.78h9.42a6.1,6.1,0,0,1,2.72.62A7.12,7.12,0,0,1,254.2,57a7.64,7.64,0,0,1,1.41,2.28,6.83,6.83,0,0,1,.51,2.56,7,7,0,0,1-1,3.77,5.87,5.87,0,0,1-2.8,2.44l4.86,8h-4.65l-4.35-7.14h-4.08v7.14Zm4.14-10.77h5.19a2.21,2.21,0,0,0,1.07-.27,2.69,2.69,0,0,0,.85-.73,3.69,3.69,0,0,0,.57-1.1,4.24,4.24,0,0,0,.21-1.35,3.85,3.85,0,0,0-.24-1.38,3.78,3.78,0,0,0-.64-1.09,3,3,0,0,0-.94-.72,2.37,2.37,0,0,0-1.06-.26h-5Z" style="fill: rgb(55, 71, 79); transform-origin: 248.55px 65.4299px;" id="elylolsormfzk" class="animable"></path><path d="M269,76.23a9.7,9.7,0,0,1-4.25-.91,10.43,10.43,0,0,1-3.27-2.43,11.32,11.32,0,0,1-2.86-7.46,10.7,10.7,0,0,1,.79-4.08,11.26,11.26,0,0,1,2.19-3.45,10.46,10.46,0,0,1,3.32-2.38,9.84,9.84,0,0,1,4.17-.89,9.33,9.33,0,0,1,4.21.95,10.54,10.54,0,0,1,3.26,2.47,11.4,11.4,0,0,1,2.1,3.48,11,11,0,0,1,.75,4,10.8,10.8,0,0,1-.78,4.07A11,11,0,0,1,276.43,73a10.39,10.39,0,0,1-3.3,2.37A9.84,9.84,0,0,1,269,76.23Zm-6.18-10.8a8.57,8.57,0,0,0,.42,2.67,7.12,7.12,0,0,0,1.21,2.28A6,6,0,0,0,266.36,72a5.63,5.63,0,0,0,2.63.6,5.54,5.54,0,0,0,2.65-.61,6.06,6.06,0,0,0,1.95-1.64,7.26,7.26,0,0,0,1.2-2.29,8.56,8.56,0,0,0,.41-2.6,8.3,8.3,0,0,0-.44-2.67,7.36,7.36,0,0,0-1.23-2.28,5.86,5.86,0,0,0-1.95-1.57,6,6,0,0,0-5.26,0,5.92,5.92,0,0,0-1.95,1.62,7.29,7.29,0,0,0-1.19,2.28A8.49,8.49,0,0,0,262.78,65.43Z" style="fill: rgb(55, 71, 79); transform-origin: 269.015px 65.4302px;" id="elj8h65xb8dn" class="animable"></path><path d="M282.55,76.08V54.78H292a6.1,6.1,0,0,1,2.72.62A7.12,7.12,0,0,1,296.83,57a7.64,7.64,0,0,1,1.41,2.28,6.83,6.83,0,0,1,.51,2.56,7,7,0,0,1-1,3.77,5.87,5.87,0,0,1-2.8,2.44l4.86,8h-4.65l-4.35-7.14h-4.08v7.14Zm4.14-10.77h5.19A2.21,2.21,0,0,0,293,65a2.69,2.69,0,0,0,.85-.73,3.69,3.69,0,0,0,.57-1.1,4.24,4.24,0,0,0,.21-1.35,3.85,3.85,0,0,0-.24-1.38,3.78,3.78,0,0,0-.64-1.09,3,3,0,0,0-.94-.72,2.37,2.37,0,0,0-1.06-.26h-5Z" style="fill: rgb(55, 71, 79); transform-origin: 291.18px 65.4299px;" id="ely0a52uiggcj" class="animable"></path><path d="M177.13,435.09a2.6,2.6,0,0,0-.58-.48,5.14,5.14,0,0,0-.81-.43,5.36,5.36,0,0,0-1-.3,5,5,0,0,0-1.11-.12,3.47,3.47,0,0,0-2.18.56,1.86,1.86,0,0,0-.7,1.53,1.71,1.71,0,0,0,.2.86,1.68,1.68,0,0,0,.62.59,5.08,5.08,0,0,0,1.06.42c.42.12.91.25,1.49.38a15.73,15.73,0,0,1,1.79.49,5.17,5.17,0,0,1,1.37.7,2.65,2.65,0,0,1,.86,1,3.25,3.25,0,0,1,.3,1.46,3.3,3.3,0,0,1-.36,1.59,3.21,3.21,0,0,1-1,1.12,4.11,4.11,0,0,1-1.47.65,7.54,7.54,0,0,1-1.83.21,8.61,8.61,0,0,1-2.8-.46,8.26,8.26,0,0,1-2.41-1.34l.78-1.37a4.11,4.11,0,0,0,.75.61,6,6,0,0,0,1,.55,7.74,7.74,0,0,0,1.26.39,5.92,5.92,0,0,0,1.41.16,3.91,3.91,0,0,0,2.13-.49,1.62,1.62,0,0,0,.75-1.46,1.65,1.65,0,0,0-.24-.91,2.1,2.1,0,0,0-.71-.63,5.56,5.56,0,0,0-1.16-.48c-.46-.14-1-.28-1.58-.42a16.31,16.31,0,0,1-1.71-.51,4.45,4.45,0,0,1-1.23-.65,2.43,2.43,0,0,1-.75-.91,3,3,0,0,1-.25-1.3,3.64,3.64,0,0,1,.34-1.62,3.46,3.46,0,0,1,1-1.19,4.3,4.3,0,0,1,1.45-.73,6.77,6.77,0,0,1,1.84-.24,6.46,6.46,0,0,1,2.34.4,6.24,6.24,0,0,1,1.85,1.06Z" style="fill: rgb(55, 71, 79); transform-origin: 173.506px 438.82px;" id="el1qm4tfgdpo9" class="animable"></path><path d="M184.49,445.37a4.7,4.7,0,0,1-1.94-.39,4.54,4.54,0,0,1-1.52-1.05,4.81,4.81,0,0,1-1-1.56,5.15,5.15,0,0,1-.35-1.88,5.09,5.09,0,0,1,.35-1.87,5,5,0,0,1,1-1.55,4.92,4.92,0,0,1,1.52-1.05,4.78,4.78,0,0,1,1.95-.39,4.66,4.66,0,0,1,3.42,1.45,4.61,4.61,0,0,1,.94,1.53,4.89,4.89,0,0,1,.34,1.81c0,.13,0,.25,0,.36s0,.19,0,.25h-7.79a3.5,3.5,0,0,0,.32,1.28,3.25,3.25,0,0,0,1.68,1.64,3.08,3.08,0,0,0,1.16.23,3.48,3.48,0,0,0,.85-.11,3.78,3.78,0,0,0,.77-.32,2.37,2.37,0,0,0,.64-.49,2,2,0,0,0,.43-.64l1.36.37a3.32,3.32,0,0,1-.63,1,4.31,4.31,0,0,1-.94.75,5.07,5.07,0,0,1-2.53.67Zm3.22-5.51a3.21,3.21,0,0,0-.33-1.23,3.31,3.31,0,0,0-.7-1,3.23,3.23,0,0,0-1-.63,3.4,3.4,0,0,0-1.19-.22,3.35,3.35,0,0,0-1.19.22,3.43,3.43,0,0,0-1,.63,3.33,3.33,0,0,0-.68,1,3.49,3.49,0,0,0-.32,1.22Z" style="fill: rgb(55, 71, 79); transform-origin: 184.44px 440.52px;" id="eluypc0qh9hx" class="animable"></path><path d="M195.94,437.18a4.1,4.1,0,0,0-2.1.61,3.24,3.24,0,0,0-1.29,1.6v5.8H191v-9.4h1.48V438a4.4,4.4,0,0,1,1.27-1.57,3.17,3.17,0,0,1,1.7-.68h.3l.22,0Z" style="fill: rgb(55, 71, 79); transform-origin: 193.485px 440.47px;" id="elroz0iow9fc8" class="animable"></path><path d="M200.22,445.19l-3.71-9.4h1.64l3,8,3-8h1.51l-3.71,9.4Z" style="fill: rgb(55, 71, 79); transform-origin: 201.085px 440.49px;" id="elhwukobj1duw" class="animable"></path><path d="M207.19,434v-2h1.58v2Zm0,11.16v-9.4h1.58v9.4Z" style="fill: rgb(55, 71, 79); transform-origin: 207.98px 438.58px;" id="el0gpqrzd9fkov" class="animable"></path><path d="M210.7,440.47a5.09,5.09,0,0,1,.34-1.87,4.63,4.63,0,0,1,1-1.54,4.69,4.69,0,0,1,1.5-1,4.8,4.8,0,0,1,2-.39,4.61,4.61,0,0,1,2.42.62,4.06,4.06,0,0,1,1.54,1.67l-1.55.48a2.57,2.57,0,0,0-1-1,2.81,2.81,0,0,0-1.44-.37,3,3,0,0,0-1.22.26,2.9,2.9,0,0,0-1,.73,3.47,3.47,0,0,0-.66,1.1,3.85,3.85,0,0,0-.24,1.38,3.73,3.73,0,0,0,.25,1.39,3.66,3.66,0,0,0,.68,1.13,3.14,3.14,0,0,0,1,.74,2.75,2.75,0,0,0,1.21.27,2.86,2.86,0,0,0,.82-.12,2.89,2.89,0,0,0,.74-.31,2.94,2.94,0,0,0,.58-.46,1.45,1.45,0,0,0,.36-.57l1.55.47a3.22,3.22,0,0,1-.6,1,3.84,3.84,0,0,1-.91.73,4.82,4.82,0,0,1-1.16.49,5,5,0,0,1-1.34.18,4.63,4.63,0,0,1-2-.4,4.53,4.53,0,0,1-1.51-1.06,4.7,4.7,0,0,1-1-1.55A5.24,5.24,0,0,1,210.7,440.47Z" style="fill: rgb(55, 71, 79); transform-origin: 215.14px 440.575px;" id="el3qk6rryaoit" class="animable"></path><path d="M225.37,445.37a4.78,4.78,0,0,1-2-.39,4.61,4.61,0,0,1-2.49-2.61,5.15,5.15,0,0,1-.35-1.88,5.09,5.09,0,0,1,.35-1.87,4.66,4.66,0,0,1,2.51-2.6,4.78,4.78,0,0,1,1.95-.39,4.66,4.66,0,0,1,3.42,1.45,4.78,4.78,0,0,1,.94,1.53,5.09,5.09,0,0,1,.33,1.81c0,.13,0,.25,0,.36a1.47,1.47,0,0,1,0,.25h-7.8a3.71,3.71,0,0,0,.33,1.28,3.35,3.35,0,0,0,.7,1,3.22,3.22,0,0,0,1,.65,3,3,0,0,0,1.16.23,3.48,3.48,0,0,0,.85-.11,4,4,0,0,0,.77-.32,2.37,2.37,0,0,0,.64-.49,1.78,1.78,0,0,0,.42-.64l1.37.37a3.36,3.36,0,0,1-.64,1,4.25,4.25,0,0,1-.93.75,5.07,5.07,0,0,1-2.53.67Zm3.22-5.51a3.61,3.61,0,0,0-.33-1.23,3.16,3.16,0,0,0-.71-1,3.11,3.11,0,0,0-1-.63,3.3,3.3,0,0,0-1.18-.22,3.35,3.35,0,0,0-1.19.22,3.43,3.43,0,0,0-1,.63,3.36,3.36,0,0,0-.69,1,3.48,3.48,0,0,0-.31,1.22Z" style="fill: rgb(55, 71, 79); transform-origin: 225.283px 440.525px;" id="elphvqtu1re9g" class="animable"></path><path d="M239.3,445.37a2.63,2.63,0,0,1-2.23-1,4.77,4.77,0,0,1-.76-2.95v-5.64h1.59v5.33c0,1.92.66,2.88,2,2.88a3.08,3.08,0,0,0,1.83-.62,3.67,3.67,0,0,0,1.27-1.7v-5.89h1.58v7.46q0,.56.51.57v1.37l-.43.05h-.29a1.12,1.12,0,0,1-.79-.28.91.91,0,0,1-.33-.69l0-1.1a4.4,4.4,0,0,1-1.66,1.63A4.53,4.53,0,0,1,239.3,445.37Z" style="fill: rgb(55, 71, 79); transform-origin: 240.694px 440.577px;" id="el2p9k4fwmdmb" class="animable"></path><path d="M255.37,445.19h-1.58v-5.26a4,4,0,0,0-.46-2.19,1.56,1.56,0,0,0-1.39-.69,2.84,2.84,0,0,0-1,.19,4,4,0,0,0-.92.52,3.66,3.66,0,0,0-.75.77,3.27,3.27,0,0,0-.49,1v5.67h-1.58v-9.4h1.44v2a4.08,4.08,0,0,1,1.61-1.58,4.56,4.56,0,0,1,2.3-.6,2.75,2.75,0,0,1,1.35.3,2.28,2.28,0,0,1,.86.83,3.57,3.57,0,0,1,.46,1.25,8.49,8.49,0,0,1,.13,1.56Z" style="fill: rgb(55, 71, 79); transform-origin: 251.285px 440.409px;" id="elkpevfle2tqb" class="animable"></path><path d="M260.25,445.37a3.59,3.59,0,0,1-1.24-.22,3.08,3.08,0,0,1-1.67-1.55,2.8,2.8,0,0,1-.24-1.16,2.43,2.43,0,0,1,.29-1.18,2.54,2.54,0,0,1,.82-.91,4.33,4.33,0,0,1,1.26-.6,5.72,5.72,0,0,1,1.59-.21,8.24,8.24,0,0,1,1.39.12,6.31,6.31,0,0,1,1.24.35v-.76a2.48,2.48,0,0,0-.65-1.81,2.44,2.44,0,0,0-1.83-.66,5.26,5.26,0,0,0-3,1.1l-.52-1a6.47,6.47,0,0,1,3.65-1.23,4,4,0,0,1,2.89,1,3.68,3.68,0,0,1,1,2.79v3.84q0,.56.51.57v1.37l-.42.05a1.83,1.83,0,0,1-.34,0,1,1,0,0,1-.75-.28,1.19,1.19,0,0,1-.33-.67l0-.67a4,4,0,0,1-1.6,1.29A5,5,0,0,1,260.25,445.37Zm.42-1.19a3.93,3.93,0,0,0,1.57-.31,2.56,2.56,0,0,0,1.11-.84,1,1,0,0,0,.34-.7v-1.39a6.54,6.54,0,0,0-2.39-.45,3.37,3.37,0,0,0-1.94.51,1.51,1.51,0,0,0-.75,1.31,1.7,1.7,0,0,0,.16.74,1.66,1.66,0,0,0,.43.59,2,2,0,0,0,.66.4A2.38,2.38,0,0,0,260.67,444.18Z" style="fill: rgb(55, 71, 79); transform-origin: 261.42px 440.507px;" id="elta0ucwsunji" class="animable"></path><path d="M270.22,445.19l-3.71-9.4h1.64l3,8,3-8h1.51l-3.7,9.4Z" style="fill: rgb(55, 71, 79); transform-origin: 271.085px 440.49px;" id="elqan4buijwq" class="animable"></path><path d="M279.37,445.37a3.65,3.65,0,0,1-1.25-.22,3.16,3.16,0,0,1-1-.63,2.76,2.76,0,0,1-.67-.92,2.8,2.8,0,0,1-.24-1.16,2.42,2.42,0,0,1,.28-1.18,2.74,2.74,0,0,1,.82-.91,4.6,4.6,0,0,1,1.26-.6,5.79,5.79,0,0,1,1.6-.21,8.22,8.22,0,0,1,1.38.12,6.31,6.31,0,0,1,1.24.35v-.76a2.26,2.26,0,0,0-2.48-2.47,5.29,5.29,0,0,0-3,1.1l-.52-1a6.47,6.47,0,0,1,3.65-1.23,4,4,0,0,1,2.89,1,3.68,3.68,0,0,1,1,2.79v3.84c0,.37.17.56.5.57v1.37l-.41.05a1.88,1.88,0,0,1-.34,0,1,1,0,0,1-.75-.28,1.07,1.07,0,0,1-.33-.67l0-.67a4,4,0,0,1-1.59,1.29A5,5,0,0,1,279.37,445.37Zm.41-1.19a4,4,0,0,0,1.58-.31,2.59,2.59,0,0,0,1.1-.84,1,1,0,0,0,.34-.7v-1.39a6.46,6.46,0,0,0-2.39-.45,3.33,3.33,0,0,0-1.93.51,1.51,1.51,0,0,0-.75,1.31,1.85,1.85,0,0,0,.15.74,1.8,1.8,0,0,0,.43.59,2.2,2.2,0,0,0,.66.4A2.38,2.38,0,0,0,279.78,444.18Z" style="fill: rgb(55, 71, 79); transform-origin: 280.52px 440.506px;" id="elyl9c5ld1xxn" class="animable"></path><path d="M286.93,434v-2h1.58v2Zm0,11.16v-9.4h1.58v9.4Z" style="fill: rgb(55, 71, 79); transform-origin: 287.72px 438.58px;" id="el7rp24t725r4" class="animable"></path><path d="M291.1,432.05h1.59v10.71a1.13,1.13,0,0,0,.28.82,1,1,0,0,0,.78.3,1.78,1.78,0,0,0,.47-.07,3.27,3.27,0,0,0,.5-.15l.25,1.28a4.71,4.71,0,0,1-.93.27,5.14,5.14,0,0,1-1,.11,2,2,0,0,1-1.45-.53,1.94,1.94,0,0,1-.53-1.45Z" style="fill: rgb(55, 71, 79); transform-origin: 293.013px 438.686px;" id="elnwqsnmjga3j" class="animable"></path><path d="M298.63,445.37a3.65,3.65,0,0,1-1.25-.22,3.16,3.16,0,0,1-1-.63,2.76,2.76,0,0,1-.67-.92,2.8,2.8,0,0,1-.24-1.16,2.42,2.42,0,0,1,.28-1.18,2.74,2.74,0,0,1,.82-.91,4.6,4.6,0,0,1,1.26-.6,5.79,5.79,0,0,1,1.6-.21,8.22,8.22,0,0,1,1.38.12,6.31,6.31,0,0,1,1.24.35v-.76a2.26,2.26,0,0,0-2.48-2.47,5.29,5.29,0,0,0-3,1.1l-.52-1a6.47,6.47,0,0,1,3.65-1.23,4,4,0,0,1,2.89,1,3.68,3.68,0,0,1,1,2.79v3.84c0,.37.17.56.5.57v1.37l-.41.05a1.88,1.88,0,0,1-.34,0,1,1,0,0,1-.75-.28,1.07,1.07,0,0,1-.33-.67l0-.67a4,4,0,0,1-1.59,1.29A5,5,0,0,1,298.63,445.37Zm.41-1.19a4,4,0,0,0,1.58-.31,2.59,2.59,0,0,0,1.1-.84,1,1,0,0,0,.34-.7v-1.39a6.46,6.46,0,0,0-2.39-.45,3.33,3.33,0,0,0-1.93.51,1.51,1.51,0,0,0-.75,1.31,1.85,1.85,0,0,0,.15.74,1.8,1.8,0,0,0,.43.59,2.2,2.2,0,0,0,.66.4A2.38,2.38,0,0,0,299,444.18Z" style="fill: rgb(55, 71, 79); transform-origin: 299.78px 440.506px;" id="elbo1rcy5z3s7" class="animable"></path><path d="M311,445.37a3.82,3.82,0,0,1-2-.54,4.14,4.14,0,0,1-1.42-1.4v1.76h-1.4V432.05h1.58v5.62a4.8,4.8,0,0,1,1.46-1.48,3.87,3.87,0,0,1,3.76-.14,4.21,4.21,0,0,1,1.32,1.08,5,5,0,0,1,.85,1.57,5.66,5.66,0,0,1,.3,1.83,5.09,5.09,0,0,1-.35,1.87,4.88,4.88,0,0,1-.93,1.54,4.38,4.38,0,0,1-1.41,1A4.08,4.08,0,0,1,311,445.37Zm-.4-1.37a2.85,2.85,0,0,0,1.3-.29,3.27,3.27,0,0,0,1-.77,3.44,3.44,0,0,0,.66-1.11,3.57,3.57,0,0,0,.24-1.3,4,4,0,0,0-.23-1.33,3.61,3.61,0,0,0-.63-1.12,3.07,3.07,0,0,0-1-.78,2.65,2.65,0,0,0-1.25-.3,2.56,2.56,0,0,0-1,.18,3.45,3.45,0,0,0-.83.48,3.76,3.76,0,0,0-.69.69,4.56,4.56,0,0,0-.51.85v2.71a1.92,1.92,0,0,0,.39.83,3.38,3.38,0,0,0,.7.66,4.11,4.11,0,0,0,.86.44A2.66,2.66,0,0,0,310.61,444Z" style="fill: rgb(55, 71, 79); transform-origin: 310.815px 438.71px;" id="elosc67nsntr" class="animable"></path><path d="M317.44,432.05H319v10.71a1.13,1.13,0,0,0,.28.82,1,1,0,0,0,.78.3,1.78,1.78,0,0,0,.47-.07,3.27,3.27,0,0,0,.5-.15l.26,1.28a5,5,0,0,1-.94.27,5.13,5.13,0,0,1-.95.11,2,2,0,0,1-1.45-.53,1.9,1.9,0,0,1-.53-1.45Z" style="fill: rgb(55, 71, 79); transform-origin: 319.353px 438.686px;" id="elrq1jp5jaqhi" class="animable"></path><path d="M326.71,445.37a4.78,4.78,0,0,1-1.95-.39,4.5,4.5,0,0,1-1.51-1.05,4.64,4.64,0,0,1-1-1.56,5,5,0,0,1-.35-1.88,4.9,4.9,0,0,1,.35-1.87,4.66,4.66,0,0,1,2.51-2.6,4.77,4.77,0,0,1,1.94-.39,4.55,4.55,0,0,1,1.94.4,4.42,4.42,0,0,1,1.48,1.05,4.64,4.64,0,0,1,.95,1.53,5.09,5.09,0,0,1,.33,1.81c0,.13,0,.25,0,.36a1.47,1.47,0,0,1,0,.25h-7.8a3.71,3.71,0,0,0,.33,1.28,3.35,3.35,0,0,0,.7,1,3.22,3.22,0,0,0,1,.65,3,3,0,0,0,1.16.23,3.48,3.48,0,0,0,.85-.11,4,4,0,0,0,.77-.32,2.54,2.54,0,0,0,.64-.49,1.92,1.92,0,0,0,.42-.64l1.37.37a3.58,3.58,0,0,1-.64,1,4.08,4.08,0,0,1-.94.75,4.73,4.73,0,0,1-1.17.49A5.11,5.11,0,0,1,326.71,445.37Zm3.22-5.51a3.41,3.41,0,0,0-.34-1.23,3.13,3.13,0,0,0-.7-1,3.23,3.23,0,0,0-1-.63,3.35,3.35,0,0,0-1.19-.22,3.3,3.3,0,0,0-1.18.22,3.48,3.48,0,0,0-1,.63,3.33,3.33,0,0,0-.68,1,3.48,3.48,0,0,0-.31,1.22Z" style="fill: rgb(55, 71, 79); transform-origin: 326.653px 440.502px;" id="el1fohn417xof" class="animable"></path></g><g id="freepik--Numbers--inject-22" class="animable animator-hidden" style="transform-origin: 253.737px 165.044px;"><path d="M183.4,194.84A51.62,51.62,0,0,1,179.2,216a47.55,47.55,0,0,1-11.75,16.27,54.35,54.35,0,0,1-17.88,10.56,65.07,65.07,0,0,1-22.41,3.77q-16.81,0-30.07-7.11a53.85,53.85,0,0,1-9-6.07.27.27,0,0,0-.08-.07c-.47-.38-.92-.78-1.37-1.19a.43.43,0,0,0-.12-.11c-.35-.32-.71-.64-1-1l-.1-.1s0,0,0-.05l-.08-.07-.21-.21-.09-.09-.21-.21a0,0,0,0,1,0,0l0,0-.05-.05-.21-.21,0,0,0,0,0,0-.15-.15,0,0,0,0h0a0,0,0,0,1,0,0,0,0,0,0,1,0,0l0,0s0,0,0,0h0l0,0-.06-.06h0s0,0,0,0h0s0,0,0,0l0,0,0,0h0a0,0,0,0,1,0,0l0,0h0s0,0,0,0h0l0,0,0,0h0l0,0a0,0,0,0,1,0,0l0,0h0l0,0,0,0,0,0h0l0,0a0,0,0,0,1,0,0h0s0,0,0,0h0l0,0,0,0,0,0h0l0,0h0l0,0-.06-.06h0a0,0,0,0,1,0,0l0,0a0,0,0,0,0,0,0h0s0,0,0,0h0l0,0,0,0,0,0h0l0,0h0l0,0,0,0,0,0s0,0,0,0l0,0,0,0h0s0,0,0,0h0l0,0h0l0,0h0l0,0h0l0,0,0,0,0,0h0a0,0,0,0,1,0,0,0,0,0,0,1,0,0h0s0,0,0,0h0l0,0-.06-.06h0s0,0,0,0h0s0,0,0,0l0,0,0,0h0a0,0,0,0,1,0,0l0,0h0s0,0,0,0h0l0,0,0,0h0l0,0a0,0,0,0,1,0,0l0,0h0l0,0,0,0,0,0h0l0,0a0,0,0,0,1,0,0h0s0,0,0,0h0l0,0,0,0,0,0h0l0,0h0l0,0-.06-.06h0a0,0,0,0,1,0,0l0,0a0,0,0,0,0,0,0h0s0,0,0,0h0l0,0,0,0,0,0h0l0,0h0l0,0,0,0,0,0s0,0,0,0l0,0,0,0h0s0,0,0,0h0l0,0h0l0,0h0l0,0h0l0,0,0,0,0,0h0a0,0,0,0,1,0,0,0,0,0,0,1,0,0h0s0,0,0,0h0l0,0-.06-.06h0s0,0,0,0h0s0,0,0,0l0,0,0,0h0a0,0,0,0,1,0,0l0,0h0s0,0,0,0h0l0,0,0,0h0l0,0a0,0,0,0,1,0,0l0,0h0l0,0,0,0,0,0h0l0,0a0,0,0,0,1,0,0h0s0,0,0,0h0l0,0,0,0,0,0h0l0,0h0l0,0-.06-.06h0a0,0,0,0,1,0,0l0,0a0,0,0,0,0,0,0h0s0,0,0,0h0l0,0,0,0,0,0h0l0,0h0l0,0,0,0,0,0s0,0,0,0l0,0,0,0h0s0,0,0,0h0l0,0h0l0,0h0l0,0h0l0,0,0,0,0,0h0a0,0,0,0,1,0,0,0,0,0,0,1,0,0h0s0,0,0,0h0l0,0-.06-.06h0s0,0,0,0h0s0,0,0,0l0,0,0,0h0a0,0,0,0,1,0,0l0,0h0s0,0,0,0h0l0,0,0,0h0l0,0a0,0,0,0,1,0,0l0,0h0l0,0,0,0,0,0h0l0,0a0,0,0,0,1,0,0h0s0,0,0,0h0l0,0,0,0,0,0h0l0,0h0l0,0-.15-.15s0,0,0,0l0,0h0s0,0,0,0h0l0,0h0l0,0,0,0,0,0-.06-.06s0,0,0,0l0,0h0l0,0h0l0,0,0,0s0,0,0,0l-.09-.09s0,0,0,0,0,0,0,0l0,0,0,0,0,0,0,0-.12-.12,0,0-.11-.12s0,0,0,0l-.06-.06-.48-.52c-.19-.19-.37-.39-.54-.58l-.43-.5a46.92,46.92,0,0,1-5.88-8.23l16.6-17.24.06.09h0l.06.09,0,0,.06.09h0l.06.09,0,0,.06.09h0l.06.09,0,0,.06.09h0l.06.09,0,0,.06.09h0l.06.09,0,0,.06.09h0l.06.09,0,0,.06.09h0l.06.09,0,0,.06.09h0l.06.09,0,0,.06.09h0l.06.09,0,0,.06.09h0l.06.09,0,0,.06.09h0l.06.09,0,0,.06.09h0l.06.09,0,0,.06.09h0l.06.09,0,0,.06.09h0l.06.09,0,0,.06.09h0l.06.09,0,0,.06.09h0l.06.09,0,0,.06.09h0l.06.09,0,0,.06.09h0l.06.09,0,0,.06.09h0l.06.09,0,0,.06.09h0l.06.09,0,0,.06.09h0l.06.09,0,0,.06.09h0l.06.09,0,0,.06.09h0l.06.09,0,0,.06.09h0l.06.09,0,0,.06.09h0l.06.09,0,0,.06.09h0l.06.09,0,0,.06.09h0l.06.09,0,0,.06.09h0l.06.09,0,0,.06.09h0l.06.09,0,0,.06.09h0l.06.09,0,0,.06.09h0l.06.09,0,0,.06.09h0l.06.09,0,0,.06.09h0l.06.09,0,0,.06.09h0l.06.09,0,0,.06.09h0l.06.09,0,0,.06.09h0l.06.09,0,0,.06.09h0l.06.09,0,0,.06.09h0l.06.09,0,0,.06.09h0l.06.09,0,0,.06.09h0l.06.09,0,0,.06.09h0l.06.09,0,0,.06.09h0l.06.09,0,0,.06.09h0l.06.09,0,0,.06.09h0l.06.09,0,0,.06.09h0l.06.09,0,0c.52.72,1,1.42,1.6,2.1a45.15,45.15,0,0,0,6.73,4.51,38.63,38.63,0,0,0,18.75,5q11.64,0,19.07-7t7.44-18.64a25.58,25.58,0,0,0-3.89-14.3,25.14,25.14,0,0,0-14.14-3.94,28,28,0,0,0-13.26,3.23,25.88,25.88,0,0,0-9.8,8.83H80.82v-.07h-.07v-.08h-.08v-.07H80.6v-.08h-.08v-.07h-.07v-.08h-.08V182H80.3V182h-.08v-.07h-.07v-.08h-.08v-.07H80v-.08h-.08v-.07h-.07v-.08h-.08v-.07H79.7v-.08h-.08v-.07h-.07v-.08h-.08v-.07H79.4v-.08h-.08V181h-.07v-.08h-.08v-.07H79.1v-.08H79v-.07H79v-.08h-.08v-.07H78.8v-.08h-.08v-.07h-.07v-.08h-.08v-.07H78.5v-.08h-.08v-.07h-.07V180h-.08v-.07H78.2v-.08h-.08v-.07h-.07v-.08H78v-.07H77.9v-.08h-.08v-.07h-.07v-.08h-.08v-.07H77.6v-.08h-.08v-.07h-.07v-.08h-.08V179H77.3V179h-.08v-.07h-.07v-.08h-.08v-.07H77v-.08h-.08v-.07h-.07v-.08h-.08v-.07H76.7v-.08h-.08v-.07h-.07v-.08h-.08v-.07H76.4v-.08h-.08V178h-.07v-.08h-.08v-.07H76.1v-.08H76v-.07H76v-.08h-.08v-.07H75.8v-.08h-.08v-.07h-.07v-.08h-.08v-.07H75.5v-.08h-.08v-.07h-.07V177h-.08v-.07H75.2v-.08h-.08v-.07h-.07v-.08H75v-.07H74.9v-.08h-.08v-.07h-.07v-.08h-.08v-.07H74.6v-.08h-.08v-.07h-.07v-.08h-.08V176H74.3V176h-.08v-.07h-.07v-.08h-.08a46.31,46.31,0,0,1,.87-4.85q.86-4.2,2.15-10.77t2.8-14.65q1.52-8.09,3.23-16.49Q87,109.21,91.74,84.65h75.43v.07h.07v.08h.08v.07h.07V85h.08V85h.07v.08h.08v.07h.07v.08h.08v.07h.07v.08h.08v.07H168v.08h.08v.07h.07v.08h.08v.07h.07v.08h.08v.07h.07V86h.08v.07h.07v.08h.08v.07h.07v.08h.08v.07h.07v.08H169v.07H169v.08h.08v.07h.07v.08h.08v.07h.07v.08h.08V87h.07v.08h.08v.07h.07v.08h.08v.07h.07v.08h.08v.07h.07v.08H170v.07h.07v.08h.08v.07h.07v.08h.08v.07h.07V88h.08V88h.07v.08h.08v.07h.07v.08h.08v.07h.07v.08h.08v.07H171v.08h.08v.07h.07v.08h.08v.07h.07v.08h.08v.07h.07V89h.08v.07h.07v.08h.08v.07h.07v.08h.08v.07h.07v.08H172v.07H172v.08h.08v.07h.07v.08h.08v.07h.07v.08h.08V90h.07v.08h.08v.07h.07v.08h.08v.07h.07v.08h.08v.07h.07v.08H173v.07h.07v.08h.08v.07h.07v.08h.08v.07h.07V91h.08V91h.07v.08h.08v.07h.07v.08h.08v.07h.07v.08h.08v26.29H119.4l-4.13,22.61A40.71,40.71,0,0,1,126.44,139a55.5,55.5,0,0,1,20,3.56,47.34,47.34,0,0,1,13.18,7.57c.2.15.4.32.6.5s.36.29.53.45.48.42.71.63l.16.14.47.45.3.28.07.07.08.08a.23.23,0,0,1,.07.07.3.3,0,0,1,.08.08.23.23,0,0,1,.07.07.3.3,0,0,1,.08.08.23.23,0,0,1,.07.07.3.3,0,0,1,.08.08.23.23,0,0,1,.07.07l.08.08.07.07a.23.23,0,0,1,.07.07s0,0,0,0a.17.17,0,0,1,.06.06l0,0,0,0,0,0s0,0,0,0h0l.05.05s0,0,0,0h0s0,0,0,0h0s0,0,0,0a0,0,0,0,1,0,0h0s0,0,0,0,0,0,0,0,0,0,0,0l0,0,0,0a0,0,0,0,0,0,0h0l0,0h0a.12.12,0,0,1,0,.05h0a0,0,0,0,1,0,0s0,0,0,0h0s0,0,0,0,0,0,0,0h0s0,0,0,0,0,0,0,0l0,0h0s0,0,0,0l0,0h0l0,0a0,0,0,0,1,0,0,.12.12,0,0,1,.05,0,0,0,0,0,1,0,0h0s0,0,0,0h0s0,0,0,0,0,0,0,0h0s0,0,0,0,0,0,0,0,0,0,0,0l0,0h0s0,0,0,0l0,0h0l0,0h0a.12.12,0,0,1,0,.05h0a0,0,0,0,1,0,0h0s0,0,0,0h0s0,0,0,0,0,0,0,0h0s0,0,0,0,0,0,0,0,0,0,0,0,0,0,0,0h0s0,0,0,0l0,0a0,0,0,0,0,0,0h0a.12.12,0,0,1,.05,0,0,0,0,0,1,0,0h0s0,0,0,0h0s0,0,0,0,0,0,0,0h0s0,0,0,0,0,0,0,0,0,0,0,0l0,0h0s0,0,0,0H165l0,0h0l.05.05h0a0,0,0,0,1,0,0h0s0,0,0,0a0,0,0,0,1,0,0s0,0,0,0,0,0,0,0h0s0,0,0,0,0,0,0,0,0,0,0,0,0,0,0,0h0s0,0,0,0l0,0a0,0,0,0,0,0,0h0l0,0h0a.12.12,0,0,1,0,.05h0a0,0,0,0,1,0,0s0,0,0,0h0s0,0,0,0,0,0,0,0h0s0,0,0,0,0,0,0,0,0,0,0,0l0,0h0s0,0,0,0l0,0h0l0,0a0,0,0,0,1,0,0,.12.12,0,0,1,.05,0,0,0,0,0,1,0,0h0s0,0,0,0h0s0,0,0,0,0,0,0,0h0s0,0,0,0,0,0,0,0,0,0,0,0l0,0h0s0,0,0,0l0,0h0l0,0h0a.12.12,0,0,1,0,.05h0a0,0,0,0,1,0,0h0s0,0,0,0h0s0,0,0,0,0,0,0,0h0s0,0,0,0,0,0,0,0,0,0,0,0,0,0,0,0h0s0,0,0,0l0,0a0,0,0,0,0,0,0h0a.12.12,0,0,1,.05,0,0,0,0,0,1,0,0h0s0,0,0,0h0s0,0,0,0,0,0,0,0h0s0,0,0,0,0,0,0,0,0,0,0,0l0,0h0s0,0,0,0h.05l0,0h0l.05.05h0a0,0,0,0,1,0,0h0s0,0,0,0a0,0,0,0,1,0,0s0,0,0,0,0,0,0,0h0s0,0,0,0,0,0,0,0,0,0,0,0,0,0,0,0h0s0,0,0,0l0,0a0,0,0,0,0,0,0h0l0,0h0a.12.12,0,0,1,0,.05h0a0,0,0,0,1,0,0s0,0,0,0h0s0,0,0,0,0,0,0,0h0s0,0,0,0,0,0,0,0,0,0,0,0l0,0h0s0,0,0,0l0,0h0l0,0a0,0,0,0,1,0,0,.12.12,0,0,1,.05,0,0,0,0,0,1,0,0h0s0,0,0,0h0s0,0,0,0,0,0,0,0h0s0,0,0,0,0,0,0,0,0,0,0,0l0,0h0s0,0,0,0l0,0h0l0,0h0a.12.12,0,0,1,0,.05h0a0,0,0,0,1,0,0h0s0,0,0,0h0s0,0,0,0,0,0,0,0h0s0,0,0,0,0,0,0,0,0,0,0,0,0,0,0,0h0s0,0,0,0l0,0a0,0,0,0,0,0,0h0a.12.12,0,0,1,.05,0,0,0,0,0,1,0,0h0s0,0,0,0h0s0,0,0,0,0,0,0,0h0s0,0,0,0,0,0,0,0,0,0,0,0l0,0h0s0,0,0,0H168l0,0h0l.05.05h0a0,0,0,0,1,0,0h0s0,0,0,0a0,0,0,0,1,0,0s0,0,0,0,0,0,0,0h0s0,0,0,0,0,0,0,0,0,0,0,0,0,0,0,0h0s0,0,0,0l0,0a0,0,0,0,0,0,0h0l0,0h0a.12.12,0,0,1,0,.05h0a0,0,0,0,1,0,0s0,0,0,0h0s0,0,0,0,0,0,0,0h0s0,0,0,0,0,0,0,0,0,0,0,0l0,0h0s0,0,0,0l0,0h0l0,0a0,0,0,0,1,0,0,.12.12,0,0,1,.05,0,0,0,0,0,1,0,0h0s0,0,0,0h0s0,0,0,0,0,0,0,0l0,0s0,0,0,0,0,0,0,0l0,0,0,.05h.05a.12.12,0,0,1,0,.05s0,0,0,0h0s0,0,0,0l0,0,0,0a.12.12,0,0,1,0,.05l0,0,.07.07.08.09.07.06.07.07.08.08.08.09.07.06.07.07a.6.6,0,0,1,.08.08l.08.09.07.06.23.24.2.21a1.14,1.14,0,0,1,.15.16l.08.08.14.15c.21.23.43.46.63.7l.12.13,0,0,.61.72a.27.27,0,0,0,.07.08l0,0a46.53,46.53,0,0,1,7.34,12.16A51.66,51.66,0,0,1,183.4,194.84Z" style="fill: rgb(38, 50, 56); transform-origin: 128.781px 165.626px;" id="elny73z77ec1e" class="animable"></path><path d="M126.44,139a55.5,55.5,0,0,1,20,3.55,46.88,46.88,0,0,1,16,10A45.84,45.84,0,0,1,172.88,168a55.18,55.18,0,0,1-.43,41.16,47.45,47.45,0,0,1-11.75,16.27A54,54,0,0,1,142.82,236a65.07,65.07,0,0,1-22.41,3.77q-16.81,0-30.07-7.11A49.1,49.1,0,0,1,70.19,213.3l16.6-17.24a45,45,0,0,0,15.08,13.36,38.62,38.62,0,0,0,18.75,5q11.64,0,19.07-7t7.44-18.64q0-11.21-7-18.1t-17.77-6.9A28.1,28.1,0,0,0,109.09,167a26,26,0,0,0-9.8,8.84H74.07a45.84,45.84,0,0,1,.87-4.85q.86-4.2,2.15-10.77t2.8-14.66q1.52-8.09,3.23-16.48,3.88-19.83,8.62-44.4h75.43v26.29H112.65L106.4,145.2a18.12,18.12,0,0,1,7.65-4.53A38.69,38.69,0,0,1,126.44,139Z" style="fill: rgb(69, 90, 100); transform-origin: 123.42px 162.226px;" id="el6ec0zuwl08" class="animable"></path><circle cx="132" cy="92.55" r="4.86" style="fill: rgb(199, 199, 199); transform-origin: 132px 92.55px;" id="eljgdy6q1ft9l" class="animable"></circle><path d="M136.35,91.58a4.86,4.86,0,1,1-4.86-4.86A4.86,4.86,0,0,1,136.35,91.58Z" style="fill: rgb(219, 219, 219); transform-origin: 131.49px 91.58px;" id="elepsye471aq" class="animable"></path><path d="M428,179c-.31-.46-.63-.91-1-1.37s-.61-.83-.93-1.24c-.74-.93-1.5-1.81-2.3-2.64-.05-.05-.09-.1-.15-.15l-.15-.15a.57.57,0,0,0-.11-.11l0,0-.11-.11a.6.6,0,0,1-.08-.08l-.07-.07,0,0-.08-.08h0l-.1-.1-.07-.07h0l0,0h0l0,0,0,0a0,0,0,0,0,0,0h0s0,0,0,0,0,0,0,0h0s0,0,0,0l0,0h0a.12.12,0,0,0-.05-.05s0,0,0,0h0l0,0,0,0h0a0,0,0,0,0,0,0s0,0,0,0l0,0h0l0,0h0a.12.12,0,0,0-.05-.05l0,0s0,0,0,0h0l0,0,0,0h0a0,0,0,0,0,0,0h0s0,0,0,0l0,0a0,0,0,0,1,0,0h0s0,0,0,0,0,0,0,0a.12.12,0,0,0-.05,0s0,0,0,0h0l0,0,0,0h0s0,0,0,0,0,0,0,0h0s0,0,0,0l0,0h0a.12.12,0,0,0,0-.05l0,0s0,0,0,0h0s0,0,0,0l0,0,0,0h0a0,0,0,0,0,0,0s0,0,0,0l0,0h0s0,0,0,0,0,0,0,0l-.05,0,0,0h0s0,0,0,0h0l0,0,0,0h0a0,0,0,0,0,0,0h0s0,0,0,0,0,0,0,0h0s0,0,0,0l0,0h0a.12.12,0,0,0-.05-.05s0,0,0,0h0l0,0,0,0h0a0,0,0,0,0,0,0s0,0,0,0l0,0h0l0,0h0a.12.12,0,0,0-.05-.05l0,0s0,0,0,0h0l0,0,0,0h0a0,0,0,0,0,0,0h0s0,0,0,0l0,0a0,0,0,0,1,0,0h0s0,0,0,0,0,0,0,0a.12.12,0,0,0-.05,0s0,0,0,0h0l0,0,0,0h0s0,0,0,0,0,0,0,0h0s0,0,0,0l0,0h0a.12.12,0,0,0,0-.05l0,0s0,0,0,0h0s0,0,0,0l0,0,0,0h0a0,0,0,0,0,0,0s0,0,0,0l0,0h0s0,0,0,0,0,0,0,0l-.05,0,0,0h0s0,0,0,0h0l0,0,0,0h0a0,0,0,0,0,0,0h0s0,0,0,0,0,0,0,0h0s0,0,0,0l0,0h0a.12.12,0,0,0-.05-.05s0,0,0,0h0l0,0,0,0h0a0,0,0,0,0,0,0s0,0,0,0l0,0h0l0,0h0a.12.12,0,0,0-.05-.05l0,0s0,0,0,0h0l0,0,0,0h0a0,0,0,0,0,0,0h0s0,0,0,0l0,0a0,0,0,0,1,0,0h0s0,0,0,0,0,0,0,0a.12.12,0,0,0-.05,0s0,0,0,0h0l0,0,0,0h0s0,0,0,0,0,0,0,0h0s0,0,0,0l0,0h0a.12.12,0,0,0,0-.05l0,0s0,0,0,0h0s0,0,0,0l0,0,0,0h0a0,0,0,0,0,0,0s0,0,0,0l0,0h0s0,0,0,0,0,0,0,0l-.05,0,0,0h0s0,0,0,0h0l0,0,0,0h0a0,0,0,0,0,0,0h0s0,0,0,0,0,0,0,0h0s0,0,0,0l0,0h0a.12.12,0,0,0-.05-.05s0,0,0,0h0l0,0,0,0h0a0,0,0,0,0,0,0s0,0,0,0l0,0h0l0,0h0a.12.12,0,0,0-.05-.05l0,0s0,0,0,0h0l0,0,0,0h0a0,0,0,0,0,0,0h0s0,0,0,0l0,0a0,0,0,0,1,0,0h0s0,0,0,0,0,0,0,0a.12.12,0,0,0-.05,0s0,0,0,0h0l0,0,0,0h0s0,0,0,0,0,0,0,0h0s0,0,0,0l0,0h0a.12.12,0,0,0,0-.05h0a0,0,0,0,0,0,0l0,0,0,0,0,0h0s0,0,0,0,0,0,0,0,0,0-.05,0h0l-.06-.06s0,0,0,0,0,0,0,0,0,0,0,0,0,0,0,0,0,0,0,0l0,0a0,0,0,0,0,0,0s0,0,0,0l-.06-.06a.2.2,0,0,0-.08-.08s0,0,0,0a.17.17,0,0,0-.06-.06l0,0s0,0,0,0a1.37,1.37,0,0,0-.17-.17.57.57,0,0,0-.11-.11c-.36-.35-.73-.69-1.1-1s-1-.83-1.47-1.22-1.23-.93-1.86-1.37h0c-.31-.21-.61-.44-.93-.64a29.37,29.37,0,0,0,4.86-2.5,34.2,34.2,0,0,0,8.73-8,35.44,35.44,0,0,0,5.6-10.56,38.44,38.44,0,0,0,1.94-12.29,34,34,0,0,0-3.55-15.62,32.25,32.25,0,0,0-2.72-4.43.86.86,0,0,1-.07-.1c-.42-.57-.85-1.13-1.31-1.67-.12-.15-.23-.3-.36-.44s-.39-.45-.58-.67-.43-.49-.66-.72l-.15-.15c-.05,0-.1-.11-.15-.15s-.1-.11-.15-.15l-.15-.15-.07-.07-.07-.07-.06-.06,0,0-.07-.07s0,0,0,0l0,0,0,0,0,0s0,0,0,0l0,0s0,0,0,0h0l0,0,0,0,0,0,0,0h0l0,0a0,0,0,0,1,0,0l0,0,0,0,0,0s0,0,0,0a0,0,0,0,1,0,0h0s0,0,0,0h-.05l0,0s0,0,0,0a0,0,0,0,1,0,0h0l0,0a0,0,0,0,1,0,0h0l0,0s0,0,0,0a0,0,0,0,1,0,0h0s0,0,0,0a0,0,0,0,1,0,0h0l0,0s0,0,0,0a0,0,0,0,1,0,0h0s0,0,0,0h-.05l0,0,0,0h0l0,0a0,0,0,0,1,0,0h0l0,0s0,0,0,0a0,0,0,0,1,0,0h0s0,0,0,0h-.05l0,0s0,0,0,0a0,0,0,0,1,0,0h0l0,0a0,0,0,0,1,0,0h0l0,0s0,0,0,0a0,0,0,0,1,0,0h0s0,0,0,0a0,0,0,0,1,0,0h0l0,0s0,0,0,0a0,0,0,0,1,0,0h0s0,0,0,0H420l0,0,0,0h0l0,0a0,0,0,0,1,0,0h0l0,0s0,0,0,0a0,0,0,0,1,0,0h0s0,0,0,0h-.05l0,0s0,0,0,0a0,0,0,0,1,0,0h0l0,0a0,0,0,0,1,0,0h0l0,0s0,0,0,0a0,0,0,0,1,0,0h0s0,0,0,0a0,0,0,0,1,0,0h0l0,0s0,0,0,0a0,0,0,0,1,0,0h0s0,0,0,0h-.05l0,0,0,0h0l0,0a0,0,0,0,1,0,0h0l0,0s0,0,0,0a0,0,0,0,1,0,0h0s0,0,0,0H419l0,0s0,0,0,0a0,0,0,0,1,0,0h0l0,0a0,0,0,0,1,0,0h0l0,0s0,0,0,0a0,0,0,0,1,0,0h0s0,0,0,0a0,0,0,0,1,0,0h0l0,0s0,0,0,0a0,0,0,0,1,0,0h0s0,0,0,0h-.05l0,0,0,0h0l0,0a0,0,0,0,1,0,0h0l0,0s0,0,0,0a0,0,0,0,1,0,0h0s0,0,0,0h-.05l0,0s0,0,0,0a0,0,0,0,1,0,0h0l0,0a0,0,0,0,1,0,0h0l0,0s0,0,0,0a0,0,0,0,1,0,0h0s0,0,0,0a0,0,0,0,1,0,0h0l0,0s0,0,0,0a0,0,0,0,1,0,0h0s0,0,0,0h-.05l0,0,0,0h0l0,0a0,0,0,0,1,0,0h0l0,0s0,0,0,0a0,0,0,0,1,0,0h0s0,0,0,0h-.05l0,0s0,0,0,0a0,0,0,0,1,0,0h0l0,0a0,0,0,0,1,0,0h0l0,0s0,0,0,0a0,0,0,0,1,0,0h0s0,0,0,0a0,0,0,0,1,0,0h0l0,0s0,0,0,0a0,0,0,0,1,0,0h0s0,0,0,0H417l0,0,0,0h0l0,0a0,0,0,0,1,0,0h0l0,0s0,0,0,0a0,0,0,0,1,0,0h0s0,0,0,0h-.05l0,0s0,0,0,0a0,0,0,0,1,0,0h0l0,0a0,0,0,0,1,0,0h0l0,0s0,0,0,0a0,0,0,0,1,0,0h0s0,0,0,0a0,0,0,0,1,0,0h0l0,0s0,0,0,0a0,0,0,0,1,0,0h0s0,0,0,0h-.05l0,0,0,0h0l0,0a0,0,0,0,1,0,0h0l0,0s0,0,0,0a0,0,0,0,1,0,0h0s0,0,0,0h0l0,0,0,0,0,0s0,0,0,0h0s0,0,0,0a.47.47,0,0,0-.1-.1h0s0,0,0,0a.24.24,0,0,0-.1-.1s0,0,0,0,0,0,0,0a.24.24,0,0,0-.1-.1s0,0,0,0,0,0,0,0a.24.24,0,0,0-.1-.1s0,0-.05,0a.24.24,0,0,0-.1-.1s0,0-.05,0a.32.32,0,0,0-.1-.1.08.08,0,0,0-.05-.05.47.47,0,0,0-.1-.1.12.12,0,0,0,0,0l-.1-.1c-.23-.23-.49-.44-.73-.66,0,0,0-.06-.08-.07h0l-.11-.1c-.74-.66-1.51-1.3-2.32-1.91a50.48,50.48,0,0,0-15.63-7.76,67.45,67.45,0,0,0-20-2.8,82.87,82.87,0,0,0-16.38,1.61,75.76,75.76,0,0,0-14.76,4.53,60.3,60.3,0,0,0-12.17,6.9,34.79,34.79,0,0,0-8.62,8.94l.07.07,18,20.19.07.06h0l.08.08.07.06h0l.08.08.07.06h0l.08.08.07.06h0l.08.08.07.06h0l.08.08.07.06h0l.08.08.07.06h0l.08.08.07.06h0l.08.08.07.06h0l.08.08.07.06h0l.08.08.07.06h0l.08.08.07.06h0l.08.08.07.06h0l.08.08.07.06h0l.08.08.07.06h0l.08.08.07.06h0l.08.08.07.06h0l.08.08.07.06h0l.08.08.07.06h0l.08.08.07.06h0l.08.08.07.06h0l.08.08.07.06h0l.08.08.07.06h0l.08.08.07.06h0l.08.08.07.06h0l.08.08.07.06h0l.08.08.07.06h0l.08.08.07.06h0l.08.08.07.06h0l.08.08.07.06h0l.08.08.07.06h0l.08.08.07.06h0l.08.08.07.06h0l.08.08.07.06h0l.08.08.07.06h0l.08.08.07.06h0l.08.08.07.06h0l.08.08.07.06h0l.08.08.07.06h0l.08.08.07.06h0l.08.08.07.06h0l.08.08.07.06h0l.08.08.07.06h0l.08.08.07.06h0l.08.08.07.06h0l.08.08a35.66,35.66,0,0,1,12.82-12.72,35.06,35.06,0,0,1,17.78-4.52,28.5,28.5,0,0,1,13.47,2.91,18.26,18.26,0,0,1,1.55,7.79,18.7,18.7,0,0,1-7.33,15.2q-7.34,5.92-20.69,5.92h-6.68v21.55h.07v.08h.08v.07h.07v.08h.08V169H360v.08h.08v.07h.07v.08h.08v.07h.07v.08h.08v.07h.07v.08h.08v.07h.07v.08h.08v.07h.07v.08h.08v.07h.07V170H361V170H361v.08h.08v.07h.07v.08h.08v.07h.07v.08h.08v.07h.07v.08h.08v.07h.07v.08h.08v.07h.07v.08h.08v.07h.07V171H362v.07h.07v.08h.08v.07h.07v.08h.08v.07h.07v.08h.08v.07h.07v.08h.08v.07h.07v.08h.08v.07h.07v.08h.08V172H363v.08h.08v.07h.07v.08h.08v.07h.07v.08h.08v.07h.07v.08h.08v.07h.07v.08h.08v.07h.07v.08h.08v.07h.07V173H364V173H364v.08h.08v.07h.07v.08h.08v.07h.07v.08h.08v.07h.07v.08h.08v.07h.07v.08h.08v.07h.07v.08h.08v.07h.07V174H365v.07h.07v.08h.08v.07h.07v.08h.08v.07h.07v.08h.08v.07h.07v.08h.08v.07h.07v.08h.08v.07h.07v.08h.08V175H366v.08h.08v.07h.07v.08h.08v.07h.07v.08h.08v.07h6q14.55,0,22.46,4.91a22.34,22.34,0,0,1,2.9,11.62q0,10.77-6.89,15.94t-20,5.17q-11.64,0-19.4-3.87a38.31,38.31,0,0,1-6.53-4.14l-.08-.1h0l-.07-.09h0l-.06-.08h0l-.07-.09h0l-.06-.08h0l-.07-.09h0l-.06-.08h0l-.07-.09h0l-.06-.08h0l-.07-.09h0l-.06-.08h0l-.07-.09h0l-.06-.08h0l-.07-.09h0l-.06-.08h0l-.07-.09h0l-.06-.08h0l-.07-.09h0l-.06-.08h0l-.07-.09h0l-.06-.08h0l-.07-.09h0l-.06-.08h0l-.07-.09h0l-.06-.08h0l-.07-.09h0l-.06-.08h0l-.07-.09h0l-.06-.08h0l-.07-.09h0l-.06-.08h0l-.07-.09h0l-.06-.08h0l-.07-.09h0l-.06-.08h0l-.07-.09h0l-.06-.08h0l-.07-.09h0l-.06-.08h0l-.07-.09h0l-.06-.08h0l-.07-.09h0l-.06-.08h0l-.07-.09h0l-.06-.08h0l-.07-.09h0l-.06-.08h0l-.07-.09h0l-.06-.08h0l-.07-.09h0l-.06-.08h0l-.07-.09h0l-.06-.08h0l-.07-.09h0l-.06-.08h0l-.07-.09h0l-.06-.08h0l-.07-.09h0l-.06-.08h0l-.07-.09h0l-.06-.08h0l-.07-.09h0l-.06-.08h0l-.07-.09h0l-.06-.08h0l-.07-.09h0l-.06-.08h0l-.07-.09h0l-.06-.08h0l-.07-.09h0l-.06-.08h0l-.07-.09h0l-.06-.08h0l-.07-.09h0l-.06-.08h0l-.07-.09h0l-.06-.08h0l-.07-.09h0l-.06-.08h0l-.07-.09h0l-.06-.08h0l-.07-.09h0l-.06-.08h0l-.07-.09h0l-.06-.08h0l-.07-.09h0l-.06-.08h0l-.07-.09h0l-.06-.08h0l-.07-.09h0l-.06-.08-16.38,20.47c.3.36.62.7.93,1.05.13.15.25.3.39.45.27.32.56.64.85.95-.27-.29-.51-.59-.78-.88l.13.13a.94.94,0,0,0,.1.1l.05,0a1.06,1.06,0,0,0,.15.15.94.94,0,0,0,.1.1l0,.05.15.15.1.1s0,0,.05,0a1.06,1.06,0,0,0,.15.15l.1.1s0,0,.05.05l.15.15a.94.94,0,0,0,.1.1l.05.05a1.06,1.06,0,0,0,.15.15.94.94,0,0,0,.1.1l.05,0a1.06,1.06,0,0,0,.15.15.94.94,0,0,0,.1.1l0,.05.15.15.1.1s0,0,.05,0a1.06,1.06,0,0,0,.15.15l.1.1s0,0,.05.05l.15.15a.94.94,0,0,0,.1.1l.05.05a1.06,1.06,0,0,0,.15.15.94.94,0,0,0,.1.1l.05,0a1.06,1.06,0,0,0,.15.15.94.94,0,0,0,.1.1l0,.05.15.15.1.1s0,0,.05,0a1.06,1.06,0,0,0,.15.15l.1.1s0,0,.05.05l.09.1h0l0,0h0l.05,0h0a.19.19,0,0,0,.07.06h0l0,0,0,0h0l0,0,0,0,.08.07s0,0,0,0a.46.46,0,0,0,.07.07h0l0,0a.05.05,0,0,0,0,0s0,.06.08.07l.08.07h0l0,0,0,0h0l0,0,0,0h0l0,0,.05,0h0l.08.06h0l.07.07h0s0,0,0,0,0,0,0,0,0,0,0,0,0,0,0,0l1.37,1.11c-.46-.35-.92-.72-1.37-1.1a.08.08,0,0,0,0,0l0,0h0l0,0h0c.51.44,1,.86,1.56,1.28-.5-.39-1-.79-1.49-1.2,0,0,0,0,0,0s0,0,0,0l0,0h0s0,0,0,0,0,0,0,0a0,0,0,0,0,0,0l0,0s0,0,0,0h0l0,0q.91.78,1.86,1.53c-.62-.48-1.23-1-1.82-1.49l0,0s0,0,0,0c.67.59,1.36,1.16,2.06,1.71-.69-.53-1.37-1.09-2-1.67a.23.23,0,0,0,.07.07h0l0,0c.55.48,1.12.95,1.69,1.4l.53.45c-.73-.57-1.45-1.16-2.15-1.77l0,0,0,0s0,0,0,0l0,0c.41.35.83.69,1.25,1,.16.14.32.28.49.41l.62.52c-.78-.6-1.54-1.24-2.29-1.89l0,0,0,0s0,0,0,0l.3.25.69.58c-.31-.26-.62-.5-.92-.76h0l.08.07a.46.46,0,0,0,.07.07l.08.08c.3.26.61.5.92.76l.41.35c-.42-.34-.85-.68-1.26-1a.6.6,0,0,0,.08.08.46.46,0,0,0,.07.07l.08.08.91.76.42.35c-.42-.35-.85-.68-1.26-1a.6.6,0,0,0,.08.08.46.46,0,0,0,.07.07l.08.08.91.76.42.35c-.42-.35-.85-.68-1.26-1a.6.6,0,0,0,.08.08.46.46,0,0,0,.07.07l.08.08.91.76.42.35c-.42-.35-.85-.68-1.26-1l.08.08.07.07.08.08c.3.26.61.5.92.76l.41.36c-.42-.35-.85-.69-1.26-1.05l.08.08a.46.46,0,0,0,.07.07l.08.08c.3.26.61.5.92.76l.41.35c-.42-.34-.85-.68-1.26-1a.6.6,0,0,0,.08.08.46.46,0,0,0,.07.07l.08.08.91.76.42.35c-.42-.35-.85-.68-1.26-1a.6.6,0,0,0,.08.08.46.46,0,0,0,.07.07l.08.08.91.76.42.35c-.42-.35-.85-.68-1.26-1a.6.6,0,0,0,.08.08.46.46,0,0,0,.07.07l.08.08.91.76.42.35c-.42-.35-.85-.68-1.26-1l.08.08.07.07.08.08c.3.26.61.5.92.76l.41.36c-.42-.35-.85-.69-1.26-1.05l.08.08a.46.46,0,0,0,.07.07l.08.08c.3.26.61.5.92.76l.41.35c-.42-.34-.85-.68-1.26-1a.6.6,0,0,0,.08.08.46.46,0,0,0,.07.07l.08.08.91.76.42.35c-.42-.35-.85-.68-1.26-1a.6.6,0,0,0,.08.08.46.46,0,0,0,.07.07l.08.08.91.76.42.35c-.42-.35-.85-.68-1.26-1a.6.6,0,0,0,.08.08.46.46,0,0,0,.07.07l.08.08.91.76.42.35c-.42-.35-.85-.68-1.26-1l.08.08a55,55,0,0,0,15.35,9.55q12.6,5.28,29,5.28a80.57,80.57,0,0,0,23.28-3.12,52.5,52.5,0,0,0,17.56-8.84,39.74,39.74,0,0,0,11.21-13.9,41.39,41.39,0,0,0,4-18.32Q434.38,188.69,428,179Zm-96.45,49.45.57.48-.62-.52Zm.17.19c.23.19.46.4.7.59l-.77-.64Zm.3.3c.24.19.46.4.7.59l-.76-.64Zm.3.3c.24.19.46.4.7.59l-.76-.64Zm.3.3c.24.19.46.4.7.59l-.77-.64Zm.3.3c.23.19.46.4.7.59l-.77-.64Zm.3.3c.23.19.46.4.7.59l-.77-.64Zm.3.3c.24.19.46.4.7.59l-.76-.64Zm.3.3c.24.19.46.4.7.59l-.76-.64Zm.3.3c.24.19.46.4.7.59l-.77-.64Zm.3.3c.23.19.46.4.7.59l-.77-.64Zm.3.3c.23.19.46.4.7.59l-.77-.64Zm.3.3c.24.19.46.4.7.59l-.76-.64Zm.3.3c.24.19.46.4.7.59l-.76-.64Zm.23.25.07.05c.24.19.46.4.7.59Z" style="fill: rgb(38, 50, 56); transform-origin: 379.947px 169.636px;" id="elih8kn75s60s" class="animable"></path><path d="M397.75,156.84a34.39,34.39,0,0,1,21.66,12.82q8.29,10.46,8.3,25.53a41.26,41.26,0,0,1-4,18.32,39.71,39.71,0,0,1-11.2,13.9A52.55,52.55,0,0,1,395,236.25a80.45,80.45,0,0,1-23.27,3.12q-16.38,0-29-5.28a53.81,53.81,0,0,1-21-15.41l16.38-20.47a39.1,39.1,0,0,0,13.36,11q7.75,3.88,19.4,3.88,13.14,0,20-5.17T397.75,192q0-11.21-8-17.24t-24.14-6h-6V147.14h6.68q13.36,0,20.69-5.93A18.68,18.68,0,0,0,394.31,126q0-8.83-6-13.15t-15.73-4.31a35,35,0,0,0-17.78,4.53,35.55,35.55,0,0,0-12.82,12.71l-18.1-20.25a34.67,34.67,0,0,1,8.62-9,60.75,60.75,0,0,1,12.17-6.89,75.76,75.76,0,0,1,14.76-4.53,82.13,82.13,0,0,1,16.38-1.62,67.45,67.45,0,0,1,20,2.81,50.46,50.46,0,0,1,15.63,7.75,34.48,34.48,0,0,1,10.13,12,34.06,34.06,0,0,1,3.55,15.63A38.38,38.38,0,0,1,423.18,134a35.44,35.44,0,0,1-5.6,10.56,34.24,34.24,0,0,1-8.73,8A30.5,30.5,0,0,1,397.75,156.84Z" style="fill: rgb(69, 90, 100); transform-origin: 374.722px 161.432px;" id="elumkosdi6ca" class="animable"></path><path d="M379.81,92.55A4.86,4.86,0,1,1,375,87.69,4.85,4.85,0,0,1,379.81,92.55Z" style="fill: rgb(199, 199, 199); transform-origin: 374.95px 92.5498px;" id="eluzd29gvefes" class="animable"></path><path d="M379.3,91.58a4.86,4.86,0,1,1-4.86-4.86A4.86,4.86,0,0,1,379.3,91.58Z" style="fill: rgb(219, 219, 219); transform-origin: 374.44px 91.58px;" id="elzlp4hl55bv" class="animable"></path></g><g id="freepik--Cat--inject-22" class="animable" style="transform-origin: 229.228px 248.789px;"><path d="M174,288.79s6-35,8.48-41.91c1.74-4.77,8.86-16.8,13.95-25.72,1-1.8,7.58-6.16,10.73-7.83,4.24-2.24,12.23,1.37,12.81,10.59.24,3.83-6.28,8.2-8.1,12.23-2.56,5.66-2.73,13-2.94,14.2-.36,2,13.77,17.66,13.15,23.62s-17,26.41-20.55,27.59S174.11,294.56,174,288.79Z" style="fill: rgb(255, 199, 39); transform-origin: 198.05px 257.18px;" id="elwiwmi2an42n" class="animable"></path><path d="M203.11,228.47c3.19,2.35,8.29,3.75,11,4.39,2.57-3.05,6-6.13,5.83-8.94-.58-9.22-8.56-12.83-12.8-10.59a64.87,64.87,0,0,0-8.43,5.55S198.57,225.13,203.11,228.47Z" style="fill: rgb(235, 235, 235); transform-origin: 209.328px 222.773px;" id="elfinp3iabdnc" class="animable"></path><path d="M216.35,215.53c.06,0,.13.06.08.11-1.42,1.33-2.79,2.73-4.08,4.2a8.11,8.11,0,0,0-2.41,4.57.09.09,0,0,1-.17,0,8.49,8.49,0,0,1,1.51-5.1C212.55,217.54,214.49,216.55,216.35,215.53Z" style="fill: rgb(38, 50, 56); transform-origin: 213.107px 220px;" id="elh4gfvp0cvlo" class="animable"></path><path d="M212,212.31a.06.06,0,0,1,.08.1,44.86,44.86,0,0,0-3.7,4.24c-1,1.25-2.73,3.09-2,4.81.12.3,0,.33-.23.07-1.08-1.62,0-3.69,1-5.07A14.2,14.2,0,0,1,212,212.31Z" style="fill: rgb(38, 50, 56); transform-origin: 208.902px 217.001px;" id="el3nkwcgoxkob" class="animable"></path><g id="el175srs0wdjc"><path d="M201.56,301.56c3.55-1.18,19.92-21.63,20.54-27.59.47-4.55-7.65-14.73-11.36-20.2l-30.73,3c-2.72,12.76-6,32-6,32C174.11,294.56,198,302.73,201.56,301.56Z" style="opacity: 0.1; transform-origin: 198.065px 277.721px;" class="animable"></path></g><path d="M116.34,301.48s-29.83-2.67-30.89-.54c-.7,1.39,5.88,19.16,9.62,25.05s27.77,28.54,34.12,33.53Z" style="fill: rgb(255, 199, 39); transform-origin: 107.294px 329.818px;" id="ellqkstpuwkdq" class="animable"></path><g id="elwdxgk9rfrsp"><path d="M104.18,325.76c2.54,4,14.3,15.18,22.45,22.18L117,304.49c-7.46-1-22.77-2.8-23.41-1.34C93,304.41,100.59,320.11,104.18,325.76Z" style="opacity: 0.1; transform-origin: 110.094px 325.27px;" class="animable"></path></g><path d="M145,268.94c0-.74-6.59-22.32,3.17-35.75,1.8-2.49,34.64,27.94,34.64,27.94Z" style="fill: rgb(255, 199, 39); transform-origin: 162.817px 250.993px;" id="eltvls69u0ab" class="animable"></path><g id="elgc4ycogn8a4"><path d="M151.19,267.65l30.29-6.25c-3.16-2.92-26.29-24.14-27.66-22.27C146.5,249.21,150.57,265,151.19,267.65Z" style="opacity: 0.1; transform-origin: 165.492px 253.332px;" class="animable"></path></g><path d="M235.91,301.29s-10.63-28.27-29-41.92c-2.29-1.69-46.54-.18-55.34,2-2.5.62-31.4,26.88-39.65,43.82C110.5,308,117.2,339.09,128,357.62c2.67,4.59,50.65,45.92,82,52.91,5.92,1.32,80.86-1,98.86-13.46s49.4-57.51,51.32-70.1-42.88-50.66-58.11-50.66S235.91,301.29,235.91,301.29Z" style="fill: rgb(255, 199, 39); transform-origin: 235.985px 334.751px;" id="elpwjfqlyv38" class="animable"></path><path d="M167.91,267.54c3.61-5.43,10.84-4.56,17.18-.35,5.12,3.41,8.22,10.11,4.76,15.32s-11.76,4.34-16.58,1.14S164,273.43,167.91,267.54Z" style="fill: rgb(38, 50, 56); transform-origin: 178.865px 274.991px;" id="elvbrhhy9xw2" class="animable"></path><path d="M168.89,268.94c3.39-5.1,10.19-4.28,16.15-.33,4.82,3.21,7.73,9.51,4.47,14.41s-11,4.08-15.58,1.07S165.21,274.48,168.89,268.94Z" style="fill: rgb(255, 255, 255); transform-origin: 179.184px 275.95px;" id="el027eaxyx2jc2" class="animable"></path><path d="M173.78,271c2.65-4,8-3.35,12.64-.25,3.77,2.51,6.05,7.44,3.5,11.27s-8.65,3.2-12.2.84S170.89,275.31,173.78,271Z" style="fill: rgb(38, 50, 56); transform-origin: 181.837px 276.486px;" id="eld6kz0h5chk" class="animable"></path><path d="M170,272.4c1.21-1.81,3.63-1.52,5.74-.11,1.72,1.13,2.75,3.37,1.59,5.12s-3.93,1.45-5.53.38S168.65,274.37,170,272.4Z" style="fill: rgb(255, 255, 255); transform-origin: 173.654px 274.897px;" id="elm84dwwc9cwk" class="animable"></path><path d="M143.67,305.45c-6.23,5.76-4.94,13.43.23,19a12.73,12.73,0,0,0,18.12.2c6-5.53,4.65-14.38.72-18.62A13.36,13.36,0,0,0,143.67,305.45Z" style="fill: rgb(38, 50, 56); transform-origin: 152.799px 315.034px;" id="el5wglqrqiz2" class="animable"></path><path d="M145.35,306.06c-5.85,5.42-4.64,12.63.21,17.88a12,12,0,0,0,17,.18c5.62-5.2,4.37-13.51.68-17.5A12.58,12.58,0,0,0,145.35,306.06Z" style="fill: rgb(255, 255, 255); transform-origin: 153.91px 315.079px;" id="elimbd9cuklb9" class="animable"></path><path d="M150,308.33c-4.59,4.24-3.64,9.88.16,14a9.36,9.36,0,0,0,13.34.14c4.39-4.07,3.42-10.57.53-13.7A9.84,9.84,0,0,0,150,308.33Z" style="fill: rgb(38, 50, 56); transform-origin: 156.709px 315.399px;" id="elhujz7ez63cq" class="animable"></path><path d="M144.81,311.15c-2.08,1.92-1.65,4.48.07,6.35a4.26,4.26,0,0,0,6.06.06,4.54,4.54,0,0,0,.24-6.22A4.47,4.47,0,0,0,144.81,311.15Z" style="fill: rgb(255, 255, 255); transform-origin: 147.856px 314.352px;" id="eluauacl5ppol" class="animable"></path><path d="M168.93,296.52c.62.36,5.25-1.48,5.54-1.87s.78-5.41.28-5.93-3.07,2.51-3.67,3.32S168.32,296.18,168.93,296.52Z" style="fill: rgb(38, 50, 56); transform-origin: 171.894px 292.613px;" id="elm143yizm0z" class="animable"></path><path d="M180.66,289.19a34.39,34.39,0,0,1,1,3.48,7.4,7.4,0,0,1,.21,1.71,1.07,1.07,0,0,1-.16.62,1.15,1.15,0,0,1-.53.28,4.49,4.49,0,0,1-1.6,0,12.92,12.92,0,0,1-1.7-.37,26.4,26.4,0,0,1-3.33-1.19l-2-.86,1.21,1.79a25.77,25.77,0,0,1,2.11,3.77,11.5,11.5,0,0,1,.7,2,3.33,3.33,0,0,1,0,1.88l-.1.19-.11.17c-.11.11-.22.22-.34.32a3.52,3.52,0,0,1-.86.52,8.15,8.15,0,0,1-2,.55,20.89,20.89,0,0,1-4.41.14,16.72,16.72,0,0,0,4.47.44,8.17,8.17,0,0,0,2.27-.41,3.3,3.3,0,0,0,2-1.52,4.08,4.08,0,0,0,.21-2.49A11.65,11.65,0,0,0,177,298a24.64,24.64,0,0,0-2.15-4l-.77.93a24.5,24.5,0,0,0,3.54,1.18,12.79,12.79,0,0,0,1.87.3,4.85,4.85,0,0,0,2-.19,1.89,1.89,0,0,0,1-.69,1.86,1.86,0,0,0,.22-1.13,7.25,7.25,0,0,0-.43-1.85A20.24,20.24,0,0,0,180.66,289.19Z" style="fill: rgb(38, 50, 56); transform-origin: 175.737px 296.916px;" id="elf5dwfjicbww" class="animable"></path><path d="M190.77,268.57q3-4.44,6.22-8.7c2.15-2.83,4.33-5.65,6.64-8.36,1.12-1.38,2.29-2.72,3.45-4.07s2.37-2.66,3.58-4c2.39-2.64,4.92-5.15,7.43-7.7-1.35,1.18-2.71,2.34-4,3.56s-2.58,2.47-3.82,3.76c-2.51,2.54-4.87,5.23-7.18,8s-4.47,5.58-6.54,8.5q-1.54,2.19-3,4.43C192.58,265.49,191.63,267,190.77,268.57Z" style="fill: rgb(38, 50, 56); transform-origin: 204.43px 252.155px;" id="eluow8aips7he" class="animable"></path><path d="M193.29,268.71c1.06-1.21,2.11-2.43,3.19-3.62s2.14-2.39,3.23-3.57c2.18-2.36,4.37-4.71,6.64-7,1.1-1.16,2.25-2.29,3.38-3.42l3.48-3.34,1.75-1.65,1.78-1.62c1.16-1.11,2.41-2.12,3.59-3.22-2.58,1.92-5.1,3.94-7.5,6.09s-4.73,4.37-7,6.66-4.44,4.66-6.53,7.11S195.17,266.1,193.29,268.71Z" style="fill: rgb(38, 50, 56); transform-origin: 206.81px 254.99px;" id="el3h2aca6q7f" class="animable"></path><path d="M194.31,270.68c1-.9,2-1.8,3-2.68s2-1.78,3-2.64c2-1.74,4.07-3.48,6.15-5.16s4.15-3.38,6.25-5,4.24-3.28,6.35-4.94c-1.14.71-2.27,1.44-3.39,2.18s-2.21,1.52-3.29,2.31c-2.19,1.56-4.3,3.23-6.38,4.92s-4.1,3.47-6.05,5.31S196.09,268.67,194.31,270.68Z" style="fill: rgb(38, 50, 56); transform-origin: 206.685px 260.47px;" id="elh4ghfukt91g" class="animable"></path><path d="M149.42,335.7c-1.53,1.6-3,3.29-4.4,5s-2.79,3.44-4.14,5.2c-2.7,3.51-5.25,7.15-7.69,10.85s-4.72,7.5-6.84,11.4c-1.07,1.93-2.08,3.91-3.08,5.89-.5,1-1,2-1.42,3l-1.38,3c2.07-3.92,4.11-7.84,6.37-11.64,1.1-1.92,2.24-3.81,3.38-5.7s2.34-3.75,3.57-5.58c2.38-3.72,4.93-7.34,7.53-10.91S146.6,339.11,149.42,335.7Z" style="fill: rgb(38, 50, 56); transform-origin: 134.945px 357.87px;" id="eljeej236wdor" class="animable"></path><path d="M150.51,338.64c-2.39,3.2-4.6,6.53-6.73,9.91s-4.11,6.85-6,10.35S134,366,132.37,369.61s-3.18,7.33-4.55,11.08c.85-1.81,1.59-3.66,2.48-5.45l1.25-2.71,1.32-2.68c.87-1.79,1.78-3.57,2.68-5.34s1.85-3.53,2.82-5.27c1.87-3.52,3.86-7,5.88-10.4q1.51-2.58,3.09-5.13C148.37,342,149.44,340.32,150.51,338.64Z" style="fill: rgb(38, 50, 56); transform-origin: 139.165px 359.665px;" id="elxbtamhj11jg" class="animable"></path><path d="M153.21,339.13C151.5,342,150,345,148.53,348s-2.78,6.05-4.07,9.12-2.46,6.19-3.53,9.34c-.55,1.57-1.05,3.16-1.57,4.74s-.94,3.19-1.39,4.8c1.17-3.12,2.28-6.25,3.48-9.35s2.39-6.19,3.67-9.26,2.58-6.12,3.91-9.16q1-2.28,2.06-4.54C151.77,342.13,152.49,340.63,153.21,339.13Z" style="fill: rgb(38, 50, 56); transform-origin: 145.59px 357.565px;" id="el0j5yw91ubqjv" class="animable"></path><g id="el0au710tuhpm"><path d="M178.62,320c1.72-.9,3.46-1.67,5.16-2.45.84-.42,1.71-.77,2.51-1.21a12.15,12.15,0,0,0,2.16-1.35,6.12,6.12,0,0,0,1.29-2c.4-.81.7-1.68,1-2.55.65-1.75,1.27-3.54,2-5.33a23.84,23.84,0,0,1-.51,5.77,20.12,20.12,0,0,1-.8,2.84,6.86,6.86,0,0,1-1.7,2.77,10.21,10.21,0,0,1-2.7,1.58,27,27,0,0,1-8.47,1.95Z" style="opacity: 0.1; transform-origin: 185.657px 312.565px;" class="animable"></path></g><path d="M358.92,331.24c9.33-19.08,19.74-47.5,10.61-69.28S311.08,204,303.46,182.31s.2-32.75-6.66-34c-3.51-.66-11.1,17.9-7.39,36.15,5.07,24.9,55.86,70.4,62,84.64s-.34,26.35-8.53,38.81Z" style="fill: rgb(255, 199, 39); transform-origin: 330.736px 239.766px;" id="el6ar2hgjtpnh" class="animable"></path><path d="M263.74,265.25a3.52,3.52,0,0,1-3.13-4.66h0c.05-.15,5.11-14.9,5.46-39.24.21-14.58-7.45-20.66-15.55-27.1-7.52-6-15.3-12.15-14.7-24.73.48-10.05,7.66-14.71,14-18.81s12.09-7.84,13.37-16.51C266,115.38,249.12,97.76,249,97.59a3.5,3.5,0,0,1,5-4.89c.79.82,19.45,20.25,16.14,42.53-1.76,11.79-9.93,17.09-16.49,21.35s-10.52,7.12-10.81,13.28c-.43,9,5.09,13.37,12.06,18.91,8.23,6.53,18.46,14.66,18.2,32.68-.37,25.59-5.64,40.83-5.86,41.46A3.52,3.52,0,0,1,263.74,265.25Z" style="fill: rgb(69, 90, 100); transform-origin: 254.446px 178.503px;" id="elqiid5d1q0bp" class="animable"></path><path d="M254.08,373.2c5.13,0,6.58-3.46,6.58-3.46s2.48,4,6.67,2.75,3.7-6.37,3.7-6.37,2.5,3.36,7,1.15c3.63-1.77,1.72-7.24,1.72-7.24a6.67,6.67,0,0,0,8.28.7c2-1.19,1.76-5,2.09-5.2,11.11-8.53,33.61-26.46,22.69-70.73-8.3-33.65-40.78-44.21-69-42.8-.43,0-.66-2.29-3.71-2.29a3.83,3.83,0,0,0-3.71,1.95,4.07,4.07,0,0,0-5.06-.89,4.35,4.35,0,0,0-2.4,4.86c-1.12-.6-2.92-3.46-7-1.86s-3.34,6-3.34,6a5.42,5.42,0,0,0-6.07-.16c-.89.52-1.13,4.29-1.53,4.93-4.91-5.71-7.68.87-6.54,2.9,1.54,2.75-2.29,4.49-3,5.21-17.37,17.28-22.42,53.56-9.61,76.54,16.35,29.34,42.53,32,56.9,31.24C248.65,370.4,250,373.2,254.08,373.2Z" style="fill: rgb(69, 90, 100); transform-origin: 250.196px 306.446px;" id="el0voun17gs3c" class="animable"></path><path d="M270.22,354.52c-16.56-8.48-26.87-26.44-32.91-43.42a112.71,112.71,0,0,1-4.91-56.35c.24-1.42-1.93-2-2.17-.6a115,115,0,0,0,5.56,59.33c6.34,16.9,16.73,34.49,33.29,43C270.37,357.13,271.51,355.18,270.22,354.52Z" style="fill: rgb(55, 71, 79); transform-origin: 249.693px 304.979px;" id="el9d22vpq1lkl" class="animable"></path><path d="M250.62,360.31a116.37,116.37,0,0,1-37.93-98.21c.15-1.44-2.11-1.43-2.25,0A118.49,118.49,0,0,0,249,361.9C250.1,362.87,251.69,361.28,250.62,360.31Z" style="fill: rgb(55, 71, 79); transform-origin: 230.413px 311.613px;" id="el9s77tlvhsgb" class="animable"></path><path d="M290.28,356c18-10.51,24-31.44,24.21-51.27a1,1,0,0,0-.58-.95,16.12,16.12,0,0,0,1.51-3.22c.47-1.37-1.7-2-2.17-.6a13.06,13.06,0,0,1-14.7,8.86,1.09,1.09,0,0,0-.18,0,44.44,44.44,0,0,0,.69-4.9.73.73,0,0,0,.27,0,16.75,16.75,0,0,0,15-10.87.94.94,0,0,0-.79-1.3,1,1,0,0,0-.08-.28.56.56,0,0,0-.05-.08,1.11,1.11,0,0,0,.35-1C310,268,292.63,256.12,272.44,249.88l.37-.22a1.12,1.12,0,0,0-1.13-1.94c-.86.48-1.7,1-2.55,1.5l-.12.08a106.21,106.21,0,0,0-24,19.86,1.14,1.14,0,0,0-.5.54c-1.46,1.64-2.89,3.31-4.25,5.05-.06-2.06-.06-4.13,0-6.2a1.1,1.1,0,0,0,.9-.51,62.77,62.77,0,0,1,25.9-22c1.32-.61.18-2.55-1.13-2a64.72,64.72,0,0,0-25.46,21,88,88,0,0,1,3.16-17.24,1.13,1.13,0,0,0-2.17-.6c-11.75,40.92,6.75,82.58,40.48,106.89,1.18.85,2.3-1.1,1.14-1.94l-.41-.31a43.64,43.64,0,0,0,26.77-42.87,1.1,1.1,0,0,0-.16-.53,15.2,15.2,0,0,0,2.91-2.53c-.48,19-6.38,38.9-24.17,48.59a1.13,1.13,0,0,0-.35.29l-2-.36c-1.42-.26-2,1.91-.6,2.17l3.8.7A1.2,1.2,0,0,0,290.28,356Zm-20.45-104.5c19,5.48,35.67,15.66,40.86,35.24-10.24-16.18-27.68-31-47.25-31.06C265.51,254.16,267.65,252.78,269.83,251.45ZM260.32,258c19.76-1.55,37.47,13,47.94,29.08a69.29,69.29,0,0,0-53.47-24.54C256.57,261,258.43,259.45,260.32,258Zm-12.08,10.86c1.36-1.44,2.77-2.82,4.2-4.17a1,1,0,0,0,.53.12,67.17,67.17,0,0,1,58.17,29.77c-.1.17-.19.35-.3.52A79,79,0,0,0,248.24,268.85ZM240.62,281l3.18-.1c1.45-.05,1.45-2.3,0-2.25l-3.35.11c0-.43-.08-.86-.1-1.29a1.15,1.15,0,0,0,.93-.47c1.53-2,3.15-3.91,4.81-5.78a76.92,76.92,0,0,1,63.36,25.68,14.47,14.47,0,0,1-2.61,2.27.79.79,0,0,0-.2-.26,86.92,86.92,0,0,0-58.77-20.25c-1.45,0-1.45,2.3,0,2.25a84.53,84.53,0,0,1,56.95,19.41,14.56,14.56,0,0,1-3.8,1.16,1.06,1.06,0,0,0-.49-.69,98,98,0,0,0-59.43-15.64C240.91,283.78,240.75,282.4,240.62,281Zm51.65,38.17a35.58,35.58,0,0,1-2.64,4.09,57.73,57.73,0,0,1-19.82-15.67.92.92,0,0,0-.57-.71,57.24,57.24,0,0,1-9.78-18.84c1.15.15,2.29.31,3.43.5,0,0,0,0,0,.05A65.22,65.22,0,0,0,292.27,319.18Zm-5.6-6a17,17,0,0,0,9.23-3.43,37.24,37.24,0,0,1-2.6,7.41A62.88,62.88,0,0,1,286.67,313.19ZM285.84,327A22.77,22.77,0,0,1,264,325.47a15.7,15.7,0,0,1,2.65-3.4,15.6,15.6,0,0,0,18.07,1.69,1,1,0,0,0,.37-.34c1,.57,2.06,1.12,3.11,1.64-.55.65-1.14,1.27-1.73,1.86A1.16,1.16,0,0,0,285.84,327Zm-17.46-6.41a16.92,16.92,0,0,1,7.29-3,1,1,0,0,0,.58-.32,59.69,59.69,0,0,0,6.7,4.83A13.2,13.2,0,0,1,268.38,320.6Zm1.2-25.44a1.13,1.13,0,0,0-.32.19,64,64,0,0,1-3.63-6.3c2.24.44,4.45,1,6.65,1.6A4.34,4.34,0,0,1,269.58,295.16Zm5-3.88a95.27,95.27,0,0,1,9.26,3.3,11.29,11.29,0,0,1-8.11,8.92.64.64,0,0,0-.14.08,62.73,62.73,0,0,1-5.08-6.39A6.6,6.6,0,0,0,274.55,291.28Zm2.71,14.09a13.51,13.51,0,0,0,8.68-9.89c1.37.61,2.72,1.26,4.06,1.93,0,0,0,.06,0,.1a12.85,12.85,0,0,1-10.45,10Q278.36,306.48,277.26,305.37Zm-35.79-18c3.06-.17,6.11-.18,9.14-.07a16.88,16.88,0,0,0-7.18,8.87C242.64,293.29,242,290.36,241.47,287.39Zm2.83,11.78a1,1,0,0,0,.81-.77,14.76,14.76,0,0,1,8.63-10.18.89.89,0,0,0,.56-.69c1,.08,2,.15,2.93.25a1.07,1.07,0,0,0,0,.64,59,59,0,0,0,4,10.12,16.8,16.8,0,0,0-14.22,8.32C246,304.34,245.11,301.77,244.3,299.17Zm3.84,10.27a1.09,1.09,0,0,0,.26-.33,14.6,14.6,0,0,1,14.09-8.29,58,58,0,0,0,4.13,6.35,17.15,17.15,0,0,0-13.31,12.45A99.26,99.26,0,0,1,248.14,309.44Zm6.68,12.69a1,1,0,0,0,.35-.58,15,15,0,0,1,13-12.38c.73.89,1.49,1.77,2.27,2.62-6.12,2.76-12.39,6.46-13.6,13.45C256.17,324.21,255.48,323.18,254.82,322.13Zm3.52,5.25a1.1,1.1,0,0,0,.61-.91c.58-7.06,7.38-10.43,13.15-13,.72.72,1.45,1.42,2.2,2.1a18.42,18.42,0,0,0-14.37,13.95C259.4,328.83,258.86,328.11,258.34,327.38Zm15.87,7.08a15.93,15.93,0,0,1-12.33-3.2,17.19,17.19,0,0,1,1.09-3.78,24.88,24.88,0,0,0,19.12,3.15,47.22,47.22,0,0,1-6.95,4.08A1.09,1.09,0,0,0,274.21,334.46Zm-9.52,1a18.05,18.05,0,0,0,5.7,1.35c-1.1.44-2.21.88-3.33,1.31C266.25,337.26,265.47,336.37,264.69,335.47Zm4,4.42c8.67-3.36,16.65-7.35,22.45-15a38.84,38.84,0,0,0,6.7-14s0,0,.07,0a16.8,16.8,0,0,0,5.71-.06,41.71,41.71,0,0,1-29.42,33.37,1,1,0,0,0-.55.39C272,343.1,270.32,341.52,268.73,339.89Zm12.12,10.43c-.08,0-.12.09-.19.13-1.78-1.37-3.54-2.77-5.23-4.23A43.87,43.87,0,0,0,306,310.49a.64.64,0,0,0,0-.24c.42-.15.83-.34,1.23-.52A41.38,41.38,0,0,1,280.85,350.32Zm2.7-39.43h0c-.65-.5-1.3-1-1.93-1.54A15,15,0,0,0,292,298.45q2.5,1.33,4.94,2.8a39.81,39.81,0,0,1-.4,4.9A15.1,15.1,0,0,1,283.55,310.89Z" style="fill: rgb(55, 71, 79); transform-origin: 276.702px 300.631px;" id="elitwktci77l" class="animable"></path><path d="M237.91,360.16a.91.91,0,0,0,.28-.23c1.05.54,2.33-.85,1.32-1.74a101.49,101.49,0,0,1-33.46-87.39c.16-1.43-2.09-1.42-2.25,0-.09.81-.16,1.62-.23,2.42a20,20,0,0,0-13.68,6.63c-1,1.08.62,2.67,1.59,1.59a17.72,17.72,0,0,1,11.92-5.95q-.18,3-.2,5.94A35.83,35.83,0,0,0,186.34,290c-1.08,1,.52,2.55,1.59,1.59a33.35,33.35,0,0,1,15.26-7.81c0,1.27.06,2.55.12,3.82a30.89,30.89,0,0,0-17.87,9.58c-1,1.06.6,2.66,1.59,1.59a29,29,0,0,1,16.42-8.92c.05.7.11,1.4.17,2.1a45,45,0,0,0-19,10.76c-1.05,1,.54,2.58,1.59,1.59a42.65,42.65,0,0,1,17.67-10.08c.17,1.48.36,2.95.59,4.41a1,1,0,0,0-.62.08,41.18,41.18,0,0,0-18.91,16.48c-.76,1.24,1.18,2.37,1.94,1.14a39.28,39.28,0,0,1,17.92-15.6c.25,1.35.51,2.7.81,4a1.08,1.08,0,0,0-.64.28,40.13,40.13,0,0,0-12.87,30.1,1.13,1.13,0,0,0,2.25,0,37.82,37.82,0,0,1,11.8-28.1c.48,2,1,3.95,1.65,5.9a47.28,47.28,0,0,0-11.48,26.75,1.17,1.17,0,0,0-.61,2.12,31.61,31.61,0,0,0,27.67,3.81,1,1,0,0,0,.73-.83c1,1.31,2,2.59,3.06,3.86a25.34,25.34,0,0,1-28.25-1.19c-1.19-.84-2.32,1.11-1.14,1.94a27.6,27.6,0,0,0,30.89,1q1.8,2.07,3.71,4.06a29.9,29.9,0,0,1-23.2,2.68,1.13,1.13,0,0,0-.6,2.17A32.21,32.21,0,0,0,234,356.07c.79.78,1.59,1.55,2.41,2.32a36.65,36.65,0,0,1-19.67,3.76c-1.44-.12-1.44,2.13,0,2.25A38.87,38.87,0,0,0,237.91,360.16Zm-36.29-33a45.36,45.36,0,0,1,7-11.71,103.68,103.68,0,0,0,5.7,13.6,21.85,21.85,0,0,1-12.66-1.89Zm-.77,2.1a24.57,24.57,0,0,0,14.3,1.92,1.18,1.18,0,0,0,.2-.07c.92,1.72,1.9,3.41,2.92,5.08a34.12,34.12,0,0,1-18.86-1.86A48.19,48.19,0,0,1,200.85,329.24Zm-2.78,11.37a1.1,1.1,0,0,0,.47-.83c.11-1.09.26-2.17.45-3.23a36.36,36.36,0,0,0,20,1.78,1,1,0,0,0,.49-.24c1.15,1.8,2.37,3.56,3.63,5.3a.84.84,0,0,0-.31,0A29.3,29.3,0,0,1,198.07,340.61Z" style="fill: rgb(55, 71, 79); transform-origin: 212.077px 317.134px;" id="elhn53r37xn8" class="animable"></path><path d="M225.6,312c-9-19.25-7.3-40.59-5.46-61.14.13-1.44-2.12-1.43-2.25,0-1.89,21-3.4,42.61,5.76,62.27C224.27,314.47,226.21,313.33,225.6,312Z" style="fill: rgb(55, 71, 79); transform-origin: 221.09px 281.757px;" id="el6yjhs4m5mfd" class="animable"></path><path d="M237.34,250.45c.32-2.85.63-5.69.95-8.54.16-1.44-2.09-1.43-2.25,0-.32,2.85-.64,5.69-.95,8.54C234.93,251.89,237.18,251.88,237.34,250.45Z" style="fill: rgb(55, 71, 79); transform-origin: 236.69px 246.18px;" id="elbdpwpz1n4ol" class="animable"></path><path d="M271.05,365.9a73.6,73.6,0,0,1-38.58-40.06c-.53-1.33-2.71-.75-2.17.6a75.86,75.86,0,0,0,39.62,41.41C271.23,368.43,272.37,366.49,271.05,365.9Z" style="fill: rgb(55, 71, 79); transform-origin: 250.926px 346.522px;" id="el70vfhsx3kbe" class="animable"></path><path d="M281.5,358.78a134.79,134.79,0,0,1-40.58-51c-.61-1.31-2.55-.17-1.95,1.14a137.19,137.19,0,0,0,41.4,51.77C281.52,361.61,282.64,359.65,281.5,358.78Z" style="fill: rgb(55, 71, 79); transform-origin: 260.416px 334.065px;" id="elp5mrcqprp9s" class="animable"></path><path d="M239.52,304a1.13,1.13,0,0,0-2.25,0A1.13,1.13,0,0,0,239.52,304Z" style="fill: rgb(55, 71, 79); transform-origin: 238.395px 304px;" id="el4xm3cj05bb8" class="animable"></path><path d="M230.64,306.17a108.63,108.63,0,0,1-2.29-60c.34-1.4-1.83-2-2.17-.59a110.91,110.91,0,0,0,2.29,61.18C228.92,308.14,231.09,307.56,230.64,306.17Z" style="fill: rgb(55, 71, 79); transform-origin: 226.822px 276.162px;" id="elw5r1lxw9uf" class="animable"></path><path d="M227.79,317.53a1.13,1.13,0,0,0-2.25,0A1.13,1.13,0,0,0,227.79,317.53Z" style="fill: rgb(55, 71, 79); transform-origin: 226.665px 317.53px;" id="elm02pgxuahq" class="animable"></path><path d="M247.25,368.53a19.52,19.52,0,0,0,2.28,1c1.37.5,2-1.68.6-2.17a16.05,16.05,0,0,1-7.71-5.93c-.83-1.17-2.78-.05-1.95,1.14.17.24.35.46.53.69a28,28,0,0,1-14.67,2.36c-1.44-.15-1.43,2.11,0,2.25a30,30,0,0,0,16.19-2.84,19.5,19.5,0,0,0,2.36,2,22.48,22.48,0,0,1-5.58,1.13c-1.44.11-1.45,2.36,0,2.25A25.88,25.88,0,0,0,247.25,368.53Z" style="fill: rgb(55, 71, 79); transform-origin: 238.086px 365.675px;" id="el7tlb9tw4zpi" class="animable"></path><path d="M206.53,266.72q.43-2.91.85-5.8a1.18,1.18,0,0,0-.34-1,7.47,7.47,0,0,0,4.61-4.71c.47-1.37-1.7-2-2.17-.6a5.22,5.22,0,0,1-4.36,3.51c-1.43.14-1.44,2.39,0,2.25l.09,0c-.28,1.93-.57,3.85-.85,5.78C204.15,267.53,206.32,268.15,206.53,266.72Z" style="fill: rgb(55, 71, 79); transform-origin: 207.88px 260.678px;" id="el178b4andzf7" class="animable"></path><circle cx="250.26" cy="92.55" r="4.86" style="fill: rgb(199, 199, 199); transform-origin: 250.26px 92.55px;" id="elh3n8rfcubsh" class="animable"></circle><path d="M254.6,91.58a4.86,4.86,0,1,1-4.86-4.86A4.85,4.85,0,0,1,254.6,91.58Z" style="fill: rgb(219, 219, 219); transform-origin: 249.74px 91.58px;" id="eluincnnsq9go" class="animable"></path><path d="M192.39,344s18.05-30.57,22.87-36.12c3.33-3.84,15.65-10.63,23.58-17.15,1.6-1.32,4.23-7.05,7.77-7.48,4.76-.58,11.9,9.31,9.16,18.13s-16,17.41-17,19.17,6.57,21.41,3.87,26.76-25.3,18.61-29,18.44S190.42,349.39,192.39,344Z" style="fill: rgb(255, 199, 39); transform-origin: 224.314px 324.489px;" id="el8wbqr679jbn" class="animable"></path><path d="M245.28,302.93a12.36,12.36,0,0,0,8.49,2.54,17.1,17.1,0,0,0,2-4.14c2.74-8.81-4.4-18.7-9.16-18.12-3.54.43-6.18,6.16-7.77,7.48C238.84,290.69,239.46,298.15,245.28,302.93Z" style="fill: rgb(235, 235, 235); transform-origin: 247.609px 294.346px;" id="elplo037kfhn" class="animable"></path><path d="M252.59,286.24a.07.07,0,0,1,.1.09c-1.13,1.59-2.19,3.23-3.16,4.92a8.12,8.12,0,0,0-1.45,5,.09.09,0,0,1-.17,0,8.59,8.59,0,0,1,.46-5.3C249.27,289,251,287.6,252.59,286.24Z" style="fill: rgb(38, 50, 56); transform-origin: 250.192px 291.27px;" id="elf51d2ongvpf" class="animable"></path><path d="M248.44,283.12c.06,0,.14,0,.1.09a43.53,43.53,0,0,0-2.78,4.89c-.72,1.42-2.06,3.58-1,5.12.18.27,0,.34-.21.11-1.37-1.37-.7-3.62-.05-5.16A14.48,14.48,0,0,1,248.44,283.12Z" style="fill: rgb(38, 50, 56); transform-origin: 246.151px 288.294px;" id="eln732rgqw87g" class="animable"></path><path d="M201.26,329.23a30.52,30.52,0,0,1-1.72,3.81c-.62,1.24-1.32,2.43-2,3.61s-1.45,2.34-2.24,3.47-1.6,2.25-2.49,3.35a20.36,20.36,0,0,1,1.47-3.93,41.6,41.6,0,0,1,2-3.66c.73-1.18,1.48-2.34,2.31-3.45A27.31,27.31,0,0,1,201.26,329.23Z" style="fill: rgb(38, 50, 56); transform-origin: 197.035px 336.35px;" id="el1vgm5u18oln" class="animable"></path><path d="M241.78,348.47a45.93,45.93,0,0,1-7.54,7.14,82.27,82.27,0,0,1-8.6,5.84,75.59,75.59,0,0,1-9.34,4.6,54.76,54.76,0,0,1-9.94,3c3.14-1.48,6.26-2.88,9.3-4.43s6-3.17,9-4.91,5.83-3.52,8.7-5.38S239.05,350.58,241.78,348.47Z" style="fill: rgb(38, 50, 56); transform-origin: 224.07px 358.76px;" id="elowb1ryf60pk" class="animable"></path><path d="M221.53,362.6a14.43,14.43,0,0,1-1.74,2.49,21.72,21.72,0,0,1-2.11,2.18,16.24,16.24,0,0,1-5.12,3.24c.75-.7,1.5-1.34,2.24-2s1.49-1.31,2.21-2C218.5,365.21,219.94,363.87,221.53,362.6Z" style="fill: rgb(38, 50, 56); transform-origin: 217.045px 366.555px;" id="el4wiqcjst4jv" class="animable"></path><path d="M290.25,365.78s-33.3-47.67-23.44-67.41c7.27-14.54,42.49-35.13,42.49-35.13s-16.62-21.53-16.84-25.9,10.77-4.56,16.68-3.13,30,30.74,30.33,34.42-7.76,17-6.65,22.72,9.54,12.33,10.12,13.31,6.13,25,1.17,32.92S297.39,369.51,290.25,365.78Z" style="fill: rgb(255, 199, 39); transform-origin: 305.57px 299.792px;" id="elvqban3w4vvb" class="animable"></path><path d="M301.49,252.74c9.25,1.07,14.32-9.12,15.72-12.46-3.37-3.27-6.35-5.66-8.08-6.08-5.89-1.42-16.89-1.23-16.67,3.14C292.6,240.05,297.66,247.48,301.49,252.74Z" style="fill: rgb(235, 235, 235); transform-origin: 304.833px 243.115px;" id="elpnhvzr2mf8k" class="animable"></path><path d="M299.66,233.17a.07.07,0,0,1,.13,0c.3,2,.68,4.05,1.16,6a8.51,8.51,0,0,0,2.48,4.83.09.09,0,0,1-.11.14,9,9,0,0,1-3.48-4.36C299.1,237.65,299.42,235.38,299.66,233.17Z" style="fill: rgb(38, 50, 56); transform-origin: 301.418px 238.639px;" id="elqtmwa2u00oj" class="animable"></path><path d="M294.25,233.8a.07.07,0,0,1,.14,0,44.11,44.11,0,0,0,1.42,5.73c.47,1.6,1,4.21,2.91,4.64.33.07.26.24-.08.23-2-.05-3.15-2.24-3.77-3.89A15.09,15.09,0,0,1,294.25,233.8Z" style="fill: rgb(38, 50, 56); transform-origin: 296.526px 239.065px;" id="elmlupyp7no4a" class="animable"></path><path d="M268.67,325.84c2.23,4.13,4.39,8.28,6.55,12.43s4.31,8.29,6.53,12.39,4.45,8.2,6.75,12.26,4.72,8,7.22,12a93.18,93.18,0,0,1-8.55-11.21c-2.59-3.93-4.94-8-7.18-12.13s-4.28-8.37-6.17-12.66S270.14,330.3,268.67,325.84Z" style="fill: rgb(38, 50, 56); transform-origin: 282.195px 350.38px;" id="elxb0hmdv012n" class="animable"></path><path d="M333.6,293.63a108.79,108.79,0,0,0,8.06,8.77c.36.33.72.66,1.09,1a10.68,10.68,0,0,1,1.19,1.09,7.9,7.9,0,0,1,1.43,3.05,32.36,32.36,0,0,1,.87,6.11,86.71,86.71,0,0,1-.34,12.07,99.14,99.14,0,0,1-1.79,11.89c0-4,.15-8,.23-12s.13-8-.1-11.87a31.62,31.62,0,0,0-.7-5.75,6.43,6.43,0,0,0-.94-2.41,12.92,12.92,0,0,0-1-1c-.36-.36-.72-.73-1.06-1.1A50.19,50.19,0,0,1,333.6,293.63Z" style="fill: rgb(38, 50, 56); transform-origin: 339.957px 315.62px;" id="el4rsbzpib1mw" class="animable"></path><path d="M285.35,359.18a45.71,45.71,0,0,1,2.36,5.68c.66,1.93,1.28,3.86,1.77,5.88a22.52,22.52,0,0,1-2.72-5.55A27.82,27.82,0,0,1,285.35,359.18Z" style="fill: rgb(38, 50, 56); transform-origin: 287.415px 364.96px;" id="els9dvqurqkvl" class="animable"></path><path d="M345.25,322.75a15.41,15.41,0,0,1,2.27,4.15,15,15,0,0,1,.65,2.29,6.67,6.67,0,0,1,.12,2.4c-.28-.76-.58-1.46-.87-2.18s-.56-1.44-.84-2.16A28.88,28.88,0,0,1,345.25,322.75Z" style="fill: rgb(38, 50, 56); transform-origin: 346.799px 327.17px;" id="el2lgoex0sghb" class="animable"></path></g><defs>     <filter id="active" height="200%">         <feMorphology in="SourceAlpha" result="DILATED" operator="dilate" radius="2"></feMorphology>                <feFlood flood-color="#32DFEC" flood-opacity="1" result="PINK"></feFlood>        <feComposite in="PINK" in2="DILATED" operator="in" result="OUTLINE"></feComposite>        <feMerge>            <feMergeNode in="OUTLINE"></feMergeNode>            <feMergeNode in="SourceGraphic"></feMergeNode>        </feMerge>    </filter>    <filter id="hover" height="200%">        <feMorphology in="SourceAlpha" result="DILATED" operator="dilate" radius="2"></feMorphology>                <feFlood flood-color="#ff0000" flood-opacity="0.5" result="PINK"></feFlood>        <feComposite in="PINK" in2="DILATED" operator="in" result="OUTLINE"></feComposite>        <feMerge>            <feMergeNode in="OUTLINE"></feMergeNode>            <feMergeNode in="SourceGraphic"></feMergeNode>        </feMerge>            <feColorMatrix type="matrix" values="0   0   0   0   0                0   1   0   0   0                0   0   0   0   0                0   0   0   1   0 "></feColorMatrix>    </filter></defs></svg>